<svg width="48" height="48" viewBox="0 0 48 48" fill="none" xmlns="http://www.w3.org/2000/svg">
<mask id="mask0_828_3394" style="mask-type:alpha" maskUnits="userSpaceOnUse" x="0" y="0" width="48" height="48">
<rect width="48" height="48" fill="#D9D9D9"/>
</mask>
<g mask="url(#mask0_828_3394)">
<path d="M20.6192 33.3384L31.3884 22.5885L29.8692 21.0693L20.6692 30.2693L15.8423 25.4616L14.2923 27.0116L20.6192 33.3384ZM12.6654 39C9.97566 39 7.69234 38.0583 5.81544 36.175C3.93854 34.2916 3.00009 32.0051 3.00009 29.3154C3.00009 26.8693 3.82059 24.7174 5.46159 22.8597C7.10262 21.002 9.14878 19.9565 11.6 19.7232C12.1128 16.6181 13.5417 14.0597 15.8865 12.0482C18.2314 10.0367 20.9628 9.03088 24.0807 9.03088C27.5705 9.03088 30.5217 10.293 32.9345 12.8174C35.3474 15.3417 36.5538 18.3757 36.5538 21.9193V23.8116H37.1692C39.3512 23.7321 41.2019 24.4206 42.7211 25.877C44.2403 27.3334 44.9999 29.1731 44.9999 31.3962C44.9999 33.4782 44.2531 35.266 42.7595 36.7596C41.266 38.2532 39.4782 39 37.3961 39H12.6654Z" fill="#1A1A1A"/>
</g>
</svg>
