<svg width="30" height="39" viewBox="0 0 30 39" fill="none" xmlns="http://www.w3.org/2000/svg">
<path d="M13.8654 33.6115H16.1346V27.0538H22.6923V24.7846H16.1346V18.2462H13.8654V24.7846H7.32696V27.0538H13.8654V33.6115ZM2.88471 38.9999C2.10138 38.9999 1.42478 38.715 0.854911 38.1451C0.285011 37.5752 6.10352e-05 36.8986 6.10352e-05 36.1153V16.1077C6.10352e-05 15.3145 0.285011 14.6354 0.854911 14.0705C1.42478 13.5056 2.10138 13.2231 2.88471 13.2231H6.36546V8.63467C6.36546 6.23834 7.20611 4.20017 8.88741 2.52017C10.5687 0.840139 12.6084 0.00012207 15.0066 0.00012207C17.4047 0.00012207 19.4423 0.840139 21.1192 2.52017C22.7961 4.20017 23.6346 6.23834 23.6346 8.63467V13.2231H27.1153C27.8986 13.2231 28.5752 13.5056 29.1451 14.0705C29.715 14.6354 30 15.3145 30 16.1077V36.1153C30 36.8986 29.715 37.5752 29.1451 38.1451C28.5752 38.715 27.8986 38.9999 27.1153 38.9999H2.88471ZM8.63466 13.2231H21.3654V8.63467C21.3654 6.8665 20.7472 5.36357 19.5109 4.12587C18.2745 2.88814 16.7732 2.26927 15.007 2.26927C13.2408 2.26927 11.7372 2.88814 10.4962 4.12587C9.25516 5.36357 8.63466 6.8665 8.63466 8.63467V13.2231Z" fill="#1A1A1A"/>
</svg>
