<svg width="42" height="35" viewBox="0 0 42 35" fill="none" xmlns="http://www.w3.org/2000/svg">
<path d="M6.5625 14.4375H0V20.5625H6.5625V14.4375Z" fill="#3338B5"/>
<path d="M19.6875 14.4375H13.125V20.5625H19.6875V14.4375Z" fill="#999BDA"/>
<path d="M13.125 14.4375H6.5625V20.5625H13.125V14.4375Z" fill="#666AC7"/>
<path d="M26.25 14.4375H19.6875V20.5625H26.25V14.4375Z" fill="#CCCDEC"/>
<path d="M24.0625 0H6.5625V6.125H24.0625C27.0793 6.125 29.9726 7.32343 32.1058 9.45666C34.2391 11.5899 35.4375 14.4832 35.4375 17.5C35.4375 20.5168 34.2391 23.4101 32.1058 25.5433C29.9726 27.6766 27.0793 28.875 24.0625 28.875H6.5625V35H24.0625C28.7038 35 33.155 33.1563 36.4369 29.8744C39.7188 26.5925 41.5625 22.1413 41.5625 17.5C41.5625 12.8587 39.7188 8.40752 36.4369 5.12563C33.155 1.84374 28.7038 0 24.0625 0Z" fill="white"/>
</svg>
