<svg width="152" height="40" viewBox="0 0 152 40" fill="none" xmlns="http://www.w3.org/2000/svg">
<path d="M32.2589 0H14.3256L12.8394 8.307L29.0219 8.32651C36.9918 8.32651 39.3485 11.2198 39.2813 16.0232C39.2466 18.484 38.1799 22.6434 37.7192 23.992C36.491 27.5867 33.9684 31.6887 24.5091 31.6724L8.77856 31.6659L7.28909 39.9762H25.1823C31.4935 39.9762 34.1798 39.2423 37.02 37.9284C43.3215 35.0188 47.0712 28.7997 48.5726 20.6835C50.81 8.59752 48.0241 0 32.2589 0Z" fill="#808080"/>
<path d="M87.7205 39.9957L88.9845 32.7727H104.304C105.507 32.7727 106.351 32.0496 106.531 30.8464C106.771 29.642 106.17 28.92 104.967 28.92H97.6417C91.8627 28.92 89.094 25.5497 90.1173 19.7707C91.1407 13.9917 95.1137 10.6225 100.892 10.6225H117.535L116.211 17.8455H101.543C100.339 17.8455 99.4965 18.5674 99.3154 19.7707C99.0748 20.9751 99.6764 21.6971 100.881 21.6971H108.206C113.984 21.6971 116.752 25.0684 115.73 30.8464C114.708 36.6243 110.793 39.9957 105.015 39.9957H87.7205Z" fill="#808080"/>
<path d="M64.3898 39.9946C54.8785 39.9946 50.6041 34.8172 52.2898 25.3058C53.9158 15.7955 60.0558 10.6182 69.5661 10.6182H86.4219L81.2445 39.9957L64.3898 39.9946ZM75.3451 17.8422H71.009C65.8327 17.8422 62.7703 20.1295 61.8716 25.3058C60.909 30.4832 62.8353 32.7705 68.0116 32.7705H72.7554L75.3451 17.8422Z" fill="#808080"/>
<path d="M138.423 39.9946L141.434 22.8982C141.976 19.5268 140.608 18.0829 137.236 18.0829H132.443L128.59 39.9946H118.834L125.887 0H135.644L133.766 10.6236H141.073C149.62 10.6236 152.69 14.3559 151.186 22.9036L148.175 40L138.423 39.9946Z" fill="#808080"/>
<path d="M6.58771 15.8151C1.89057 15.8151 1.21738 18.8764 0.772921 20.7258C0.190791 23.1486 0 24.1297 0 24.1297H18.3615C23.0586 24.1297 23.7318 21.0683 24.1763 19.2189C24.7584 16.7961 24.9492 15.8151 24.9492 15.8151H6.58771Z" fill="#808080"/>
</svg>
