<svg width="192" height="40" viewBox="0 0 192 40" fill="none" xmlns="http://www.w3.org/2000/svg">
<path d="M56.5843 4.01621C58.2608 4.01621 59.7261 4.20022 60.9801 4.56824C62.2341 4.93625 63.2427 5.32471 64.006 5.73362C64.7693 6.14253 65.2327 6.41513 65.3963 6.55143L62.4521 11.4788C62.2341 11.3152 61.8592 11.0767 61.3276 10.7632C60.8097 10.4497 60.1895 10.1703 59.4671 9.92491C58.7583 9.67957 58.0155 9.5569 57.2386 9.5569C56.189 9.5569 55.3372 9.74772 54.6829 10.1294C54.0423 10.4974 53.722 11.0494 53.722 11.7854C53.722 12.2898 53.8924 12.7464 54.2331 13.1553C54.5875 13.5506 55.1191 13.9322 55.8279 14.3002C56.5503 14.6546 57.4635 15.0431 58.5675 15.4656C59.5762 15.8336 60.5235 16.2698 61.4094 16.7741C62.2954 17.2784 63.0723 17.8781 63.7402 18.5733C64.4217 19.2548 64.9601 20.0454 65.3554 20.9449C65.7506 21.8445 65.9483 22.8668 65.9483 24.0117C65.9483 25.3748 65.6689 26.5606 65.11 27.5692C64.5512 28.5642 63.7879 29.3889 62.8202 30.0431C61.866 30.6974 60.7756 31.1812 59.5489 31.4947C58.3358 31.8219 57.075 31.9854 55.7665 31.9854C53.9128 31.9854 52.2499 31.7742 50.7779 31.3516C49.3194 30.9291 48.1404 30.4725 47.2408 29.9818C46.3412 29.4911 45.8028 29.164 45.6256 29.0004L48.672 23.8686C48.8355 23.9913 49.149 24.1889 49.6125 24.4615C50.0895 24.7341 50.6688 25.0204 51.3503 25.3202C52.0318 25.6065 52.7542 25.8518 53.5175 26.0563C54.2944 26.2607 55.0577 26.363 55.8074 26.363C57.0614 26.363 58.0019 26.1244 58.6289 25.6474C59.2559 25.1567 59.5693 24.5161 59.5693 23.7255C59.5693 23.1394 59.3717 22.6146 58.9764 22.1512C58.5812 21.6878 57.9882 21.2516 57.1977 20.8427C56.4071 20.4202 55.4189 19.9772 54.2331 19.5138C53.0473 19.0367 51.9364 18.4574 50.9005 17.7759C49.8783 17.0944 49.0468 16.2425 48.4062 15.2203C47.7656 14.198 47.4453 12.9304 47.4453 11.4174C47.4453 9.90447 47.8678 8.59597 48.7129 7.49192C49.5716 6.37424 50.6961 5.51554 52.0864 4.91581C53.4903 4.31608 54.9896 4.01621 56.5843 4.01621Z" fill="#808080"/>
<path d="M78.1979 31.9854C76.3578 31.9854 74.7222 31.6106 73.291 30.8609C71.8735 30.0976 70.7558 29.0549 69.938 27.7328C69.1338 26.397 68.7317 24.8705 68.7317 23.153C68.7317 21.4356 69.1338 19.909 69.938 18.5733C70.7558 17.2239 71.8735 16.1607 73.291 15.3838C74.7222 14.6069 76.3578 14.2184 78.1979 14.2184C80.038 14.2184 81.66 14.6069 83.0639 15.3838C84.4678 16.1607 85.5651 17.2239 86.3556 18.5733C87.1462 19.909 87.5414 21.4356 87.5414 23.153C87.5414 24.8705 87.1462 26.397 86.3556 27.7328C85.5651 29.0549 84.4678 30.0976 83.0639 30.8609C81.66 31.6106 80.038 31.9854 78.1979 31.9854ZM78.1979 26.8741C78.9067 26.8741 79.5201 26.7173 80.038 26.4039C80.556 26.0904 80.958 25.6474 81.2443 25.0749C81.5305 24.5024 81.6736 23.855 81.6736 23.1326C81.6736 22.3966 81.5305 21.7423 81.2443 21.1698C80.958 20.5974 80.556 20.1476 80.038 19.8205C79.5201 19.4933 78.9067 19.3298 78.1979 19.3298C77.4891 19.3298 76.869 19.4933 76.3374 19.8205C75.8194 20.1476 75.4105 20.5974 75.1107 21.1698C74.8244 21.7423 74.6813 22.3966 74.6813 23.1326C74.6813 23.855 74.8244 24.5024 75.1107 25.0749C75.4105 25.6474 75.8194 26.0904 76.3374 26.4039C76.869 26.7173 77.4891 26.8741 78.1979 26.8741Z" fill="#808080"/>
<path d="M97.9727 31.9854C96.3507 31.9854 94.94 31.5902 93.7405 30.7996C92.5411 29.9954 91.6074 28.9254 90.9395 27.5897C90.2853 26.2403 89.9581 24.7478 89.9581 23.1122C89.9581 21.4765 90.2853 19.9908 90.9395 18.6551C91.6074 17.3057 92.5411 16.2289 93.7405 15.4247C94.94 14.6205 96.3507 14.2184 97.9727 14.2184C99.0495 14.2184 100.004 14.3888 100.835 14.7296C101.666 15.0567 102.341 15.452 102.859 15.9154C103.377 16.3652 103.691 16.7809 103.8 17.1626V3.36196H110.015V31.4947H103.861V28.7755C103.602 29.2798 103.179 29.7841 102.593 30.2885C102.007 30.7792 101.319 31.1812 100.528 31.4947C99.7378 31.8219 98.8859 31.9854 97.9727 31.9854ZM99.8741 27.099C100.624 27.099 101.292 26.9286 101.878 26.5879C102.477 26.2471 102.948 25.7769 103.288 25.1771C103.629 24.5638 103.8 23.8754 103.8 23.1122C103.8 22.3489 103.629 21.6673 103.288 21.0676C102.948 20.4543 102.477 19.9772 101.878 19.6364C101.292 19.2821 100.624 19.1049 99.8741 19.1049C99.1517 19.1049 98.4975 19.2821 97.9114 19.6364C97.3389 19.9772 96.8823 20.4543 96.5415 21.0676C96.2144 21.6673 96.0508 22.3489 96.0508 23.1122C96.0508 23.8754 96.2144 24.5638 96.5415 25.1771C96.8823 25.7769 97.3389 26.2471 97.9114 26.5879C98.4975 26.9286 99.1517 27.099 99.8741 27.099Z" fill="#808080"/>
<path d="M126.641 31.4947V28.7755C126.518 29.0481 126.205 29.4434 125.7 29.9613C125.21 30.4793 124.555 30.9495 123.738 31.3721C122.92 31.781 121.966 31.9854 120.875 31.9854C119.24 31.9854 117.809 31.5902 116.582 30.7996C115.355 29.9954 114.401 28.9254 113.719 27.5897C113.038 26.2403 112.697 24.7478 112.697 23.1122C112.697 21.4765 113.038 19.9908 113.719 18.6551C114.401 17.3057 115.355 16.2289 116.582 15.4247C117.809 14.6205 119.24 14.2184 120.875 14.2184C121.925 14.2184 122.845 14.3888 123.635 14.7296C124.426 15.0567 125.067 15.452 125.557 15.9154C126.048 16.3652 126.389 16.7809 126.58 17.1626V14.7091H132.754V31.4947H126.641ZM118.79 23.1122C118.79 23.8754 118.967 24.5638 119.321 25.1771C119.676 25.7769 120.146 26.2471 120.732 26.5879C121.332 26.9286 121.993 27.099 122.715 27.099C123.465 27.099 124.126 26.9286 124.699 26.5879C125.271 26.2471 125.721 25.7769 126.048 25.1771C126.389 24.5638 126.559 23.8754 126.559 23.1122C126.559 22.3489 126.389 21.6673 126.048 21.0676C125.721 20.4543 125.271 19.9772 124.699 19.6364C124.126 19.2821 123.465 19.1049 122.715 19.1049C121.993 19.1049 121.332 19.2821 120.732 19.6364C120.146 19.9772 119.676 20.4543 119.321 21.0676C118.967 21.6673 118.79 22.3489 118.79 23.1122Z" fill="#808080"/>
<path d="M142.913 31.4947H136.678V3.36196H142.913V31.4947Z" fill="#808080"/>
<path d="M147.125 31.4947V14.7091H153.341V31.4947H147.125ZM150.315 11.2539C149.333 11.2539 148.502 10.9131 147.82 10.2316C147.139 9.53645 146.798 8.71182 146.798 7.75771C146.798 6.80359 147.139 5.97896 147.82 5.28382C148.515 4.57505 149.347 4.22066 150.315 4.22066C150.955 4.22066 151.541 4.38423 152.073 4.71135C152.605 5.02485 153.034 5.44738 153.361 5.97896C153.688 6.51054 153.852 7.10346 153.852 7.75771C153.852 8.71182 153.504 9.53645 152.809 10.2316C152.114 10.9131 151.282 11.2539 150.315 11.2539Z" fill="#808080"/>
<path d="M156.191 14.7091H159.054V7.81904H165.208V14.7091H168.97V19.8205H165.208V24.5024C165.208 25.1976 165.31 25.7632 165.515 26.1994C165.719 26.6219 166.094 26.8332 166.639 26.8332C167.007 26.8332 167.321 26.7514 167.579 26.5879C167.838 26.4243 167.995 26.3153 168.05 26.2607L170.176 30.6769C170.081 30.7587 169.781 30.9086 169.276 31.1267C168.786 31.3448 168.159 31.5424 167.395 31.7196C166.632 31.8968 165.78 31.9854 164.84 31.9854C163.163 31.9854 161.78 31.5152 160.689 30.5747C159.599 29.6206 159.054 28.1553 159.054 26.179V19.8205H156.191V14.7091Z" fill="#808080"/>
<path d="M180.942 26.1176L185.481 14.7091H191.573L180.042 40H173.827L177.711 31.4947L170.699 14.7091H176.894L180.942 26.1176Z" fill="#808080"/>
<path d="M23.4207 4.79446C18.4156 1.474 7.71893 -3.6081 2.44754 3.86925C-3.44746 12.2312 3.58437 19.279 7.96603 23.6706C8.04042 23.7451 8.11403 23.8189 8.18682 23.8919C6.50054 22.1201 6.2547 12.5944 9.13009 8.77424C12.5289 4.25865 20.5132 3.42294 23.4207 4.79446Z" fill="#808080"/>
<path d="M4.43091 30.7628C9.37146 34.1785 19.9689 39.4645 25.3825 32.0895C31.4365 23.8419 24.5409 16.6608 20.2442 12.1861C20.1565 12.0948 20.0699 12.0046 19.9845 11.9156C21.6784 13.5993 21.7686 23.2605 18.7951 27.0574C15.3104 31.5071 7.3116 32.1898 4.43091 30.7628Z" fill="#808080"/>
</svg>
