<svg width="624" height="552" viewBox="0 0 624 552" fill="none" xmlns="http://www.w3.org/2000/svg">
<g filter="url(#filter0_dd_1080_1813)">
<g filter="url(#filter1_dd_1080_1813)">
<path d="M501.091 126H122.909C116.884 126 112 130.884 112 136.909V415.091C112 421.116 116.884 426 122.909 426H501.091C507.116 426 512 421.116 512 415.091V136.909C512 130.884 507.116 126 501.091 126Z" fill="#F3F5F8"/>
</g>
<path d="M112 136.909C112 130.884 116.884 126 122.909 126H501.091C507.116 126 512 130.884 512 136.909V169.636H112V136.909Z" fill="#E0E7EC"/>
<path fill-rule="evenodd" clip-rule="evenodd" d="M133.818 153.273C136.831 153.273 139.273 150.831 139.273 147.818C139.273 144.806 136.831 142.364 133.818 142.364C130.806 142.364 128.364 144.806 128.364 147.818C128.364 150.831 130.806 153.273 133.818 153.273ZM152 153.273C155.013 153.273 157.455 150.831 157.455 147.818C157.455 144.806 155.013 142.364 152 142.364C148.987 142.364 146.545 144.806 146.545 147.818C146.545 150.831 148.987 153.273 152 153.273ZM175.636 147.818C175.636 150.831 173.194 153.273 170.182 153.273C167.169 153.273 164.727 150.831 164.727 147.818C164.727 144.806 167.169 142.364 170.182 142.364C173.194 142.364 175.636 144.806 175.636 147.818Z" fill="#94A2AB"/>
<path d="M233.818 189.636H142.909C138.892 189.636 135.636 192.892 135.636 196.909V282.364C135.636 286.38 138.892 289.636 142.909 289.636H233.818C237.835 289.636 241.091 286.38 241.091 282.364V196.909C241.091 192.892 237.835 189.636 233.818 189.636Z" fill="#E0E7EC"/>
<path fill-rule="evenodd" clip-rule="evenodd" d="M200.911 232.736C203.253 232.736 205.151 230.821 205.151 228.459C205.151 226.097 203.253 224.182 200.911 224.182C198.569 224.182 196.671 226.097 196.671 228.459C196.671 230.821 198.569 232.736 200.911 232.736ZM189.174 258.634H164.771C163.344 258.634 162.473 257.066 163.228 255.855L179.502 229.724C180.202 228.6 181.826 228.571 182.555 229.677C185.101 233.536 190.321 241.467 194.812 248.378L199.527 240.764C200.211 239.659 201.801 239.608 202.554 240.668L213.305 255.789C214.156 256.986 213.314 258.646 211.846 258.661L201.428 258.763L189.174 258.634Z" fill="#94A2AB"/>
<path d="M357.455 189.636H266.545C262.529 189.636 259.273 192.892 259.273 196.909V282.364C259.273 286.38 262.529 289.636 266.545 289.636H357.455C361.471 289.636 364.727 286.38 364.727 282.364V196.909C364.727 192.892 361.471 189.636 357.455 189.636Z" fill="#E0E7EC"/>
<path fill-rule="evenodd" clip-rule="evenodd" d="M324.547 232.736C326.889 232.736 328.787 230.821 328.787 228.459C328.787 226.097 326.889 224.182 324.547 224.182C322.205 224.182 320.307 226.097 320.307 228.459C320.307 230.821 322.205 232.736 324.547 232.736ZM312.811 258.634H288.407C286.981 258.634 286.11 257.066 286.864 255.855L303.138 229.724C303.838 228.6 305.462 228.571 306.193 229.677C308.736 233.536 313.958 241.467 318.449 248.378L323.164 240.764C323.847 239.659 325.436 239.608 326.191 240.668L336.942 255.789C337.793 256.986 336.951 258.646 335.482 258.661L325.064 258.763L312.811 258.634Z" fill="#94A2AB"/>
<path d="M481.091 189.636H390.182C386.165 189.636 382.909 192.892 382.909 196.909V282.364C382.909 286.38 386.165 289.636 390.182 289.636H481.091C485.108 289.636 488.364 286.38 488.364 282.364V196.909C488.364 192.892 485.108 189.636 481.091 189.636Z" fill="#E0E7EC"/>
<path fill-rule="evenodd" clip-rule="evenodd" d="M448.184 232.736C450.525 232.736 452.424 230.821 452.424 228.459C452.424 226.097 450.525 224.182 448.184 224.182C445.842 224.182 443.944 226.097 443.944 228.459C443.944 230.821 445.842 232.736 448.184 232.736ZM436.447 258.634H412.044C410.616 258.634 409.745 257.066 410.5 255.855L426.775 229.724C427.475 228.6 429.098 228.571 429.829 229.677C432.373 233.536 437.595 241.467 442.085 248.378L446.8 240.764C447.484 239.659 449.073 239.608 449.827 240.668L460.578 255.789C461.429 256.986 460.587 258.646 459.118 258.661L448.7 258.763L436.447 258.634Z" fill="#94A2AB"/>
<path d="M233.818 307.818H142.909C138.892 307.818 135.636 311.074 135.636 315.091V400.545C135.636 404.562 138.892 407.818 142.909 407.818H233.818C237.835 407.818 241.091 404.562 241.091 400.545V315.091C241.091 311.074 237.835 307.818 233.818 307.818Z" fill="#E0E7EC"/>
<path fill-rule="evenodd" clip-rule="evenodd" d="M200.911 350.918C203.253 350.918 205.151 349.002 205.151 346.64C205.151 344.278 203.253 342.364 200.911 342.364C198.569 342.364 196.671 344.278 196.671 346.64C196.671 349.002 198.569 350.918 200.911 350.918ZM189.174 376.816H164.771C163.344 376.816 162.473 375.247 163.228 374.036L179.502 347.907C180.202 346.782 181.826 346.753 182.555 347.858C185.101 351.718 190.321 359.649 194.812 366.56L199.527 358.945C200.211 357.84 201.801 357.789 202.554 358.849L213.305 373.971C214.156 375.169 213.314 376.829 211.846 376.842L201.428 376.945L189.174 376.816Z" fill="#94A2AB"/>
<path d="M357.455 307.818H266.545C262.529 307.818 259.273 311.074 259.273 315.091V400.545C259.273 404.562 262.529 407.818 266.545 407.818H357.455C361.471 407.818 364.727 404.562 364.727 400.545V315.091C364.727 311.074 361.471 307.818 357.455 307.818Z" fill="#E0E7EC"/>
<path fill-rule="evenodd" clip-rule="evenodd" d="M324.547 350.918C326.889 350.918 328.787 349.002 328.787 346.64C328.787 344.278 326.889 342.364 324.547 342.364C322.205 342.364 320.307 344.278 320.307 346.64C320.307 349.002 322.205 350.918 324.547 350.918ZM312.811 376.816H288.407C286.981 376.816 286.11 375.247 286.864 374.036L303.138 347.907C303.838 346.782 305.462 346.753 306.193 347.858C308.736 351.718 313.958 359.649 318.449 366.56L323.164 358.945C323.847 357.84 325.436 357.789 326.191 358.849L336.942 373.971C337.793 375.169 336.951 376.829 335.482 376.842L325.064 376.945L312.811 376.816Z" fill="#94A2AB"/>
<path d="M481.091 307.818H390.182C386.165 307.818 382.909 311.074 382.909 315.091V400.545C382.909 404.562 386.165 407.818 390.182 407.818H481.091C485.108 407.818 488.364 404.562 488.364 400.545V315.091C488.364 311.074 485.108 307.818 481.091 307.818Z" fill="#E0E7EC"/>
<path fill-rule="evenodd" clip-rule="evenodd" d="M448.184 350.918C450.525 350.918 452.424 349.002 452.424 346.64C452.424 344.278 450.525 342.364 448.184 342.364C445.842 342.364 443.944 344.278 443.944 346.64C443.944 349.002 445.842 350.918 448.184 350.918ZM436.447 376.816H412.044C410.616 376.816 409.745 375.247 410.5 374.036L426.775 347.907C427.475 346.782 429.098 346.753 429.829 347.858C432.373 351.718 437.595 359.649 442.085 366.56L446.8 358.945C447.484 357.84 449.073 357.789 449.827 358.849L460.578 373.971C461.429 375.169 460.587 376.829 459.118 376.842L448.7 376.945L436.447 376.816Z" fill="#94A2AB"/>
</g>
<defs>
<filter id="filter0_dd_1080_1813" x="92" y="126" width="440" height="340" filterUnits="userSpaceOnUse" color-interpolation-filters="sRGB">
<feFlood flood-opacity="0" result="BackgroundImageFix"/>
<feColorMatrix in="SourceAlpha" type="matrix" values="0 0 0 0 0 0 0 0 0 0 0 0 0 0 0 0 0 0 127 0" result="hardAlpha"/>
<feMorphology radius="4" operator="erode" in="SourceAlpha" result="effect1_dropShadow_1080_1813"/>
<feOffset dy="8"/>
<feGaussianBlur stdDeviation="4"/>
<feComposite in2="hardAlpha" operator="out"/>
<feColorMatrix type="matrix" values="0 0 0 0 0 0 0 0 0 0 0 0 0 0 0 0 0 0 0.03 0"/>
<feBlend mode="normal" in2="BackgroundImageFix" result="effect1_dropShadow_1080_1813"/>
<feColorMatrix in="SourceAlpha" type="matrix" values="0 0 0 0 0 0 0 0 0 0 0 0 0 0 0 0 0 0 127 0" result="hardAlpha"/>
<feMorphology radius="4" operator="erode" in="SourceAlpha" result="effect2_dropShadow_1080_1813"/>
<feOffset dy="20"/>
<feGaussianBlur stdDeviation="12"/>
<feComposite in2="hardAlpha" operator="out"/>
<feColorMatrix type="matrix" values="0 0 0 0 0 0 0 0 0 0 0 0 0 0 0 0 0 0 0.08 0"/>
<feBlend mode="normal" in2="effect1_dropShadow_1080_1813" result="effect2_dropShadow_1080_1813"/>
<feBlend mode="normal" in="SourceGraphic" in2="effect2_dropShadow_1080_1813" result="shape"/>
</filter>
<filter id="filter1_dd_1080_1813" x="92" y="126" width="440" height="340" filterUnits="userSpaceOnUse" color-interpolation-filters="sRGB">
<feFlood flood-opacity="0" result="BackgroundImageFix"/>
<feColorMatrix in="SourceAlpha" type="matrix" values="0 0 0 0 0 0 0 0 0 0 0 0 0 0 0 0 0 0 127 0" result="hardAlpha"/>
<feMorphology radius="4" operator="erode" in="SourceAlpha" result="effect1_dropShadow_1080_1813"/>
<feOffset dy="8"/>
<feGaussianBlur stdDeviation="4"/>
<feComposite in2="hardAlpha" operator="out"/>
<feColorMatrix type="matrix" values="0 0 0 0 0 0 0 0 0 0 0 0 0 0 0 0 0 0 0.03 0"/>
<feBlend mode="normal" in2="BackgroundImageFix" result="effect1_dropShadow_1080_1813"/>
<feColorMatrix in="SourceAlpha" type="matrix" values="0 0 0 0 0 0 0 0 0 0 0 0 0 0 0 0 0 0 127 0" result="hardAlpha"/>
<feMorphology radius="4" operator="erode" in="SourceAlpha" result="effect2_dropShadow_1080_1813"/>
<feOffset dy="20"/>
<feGaussianBlur stdDeviation="12"/>
<feComposite in2="hardAlpha" operator="out"/>
<feColorMatrix type="matrix" values="0 0 0 0 0 0 0 0 0 0 0 0 0 0 0 0 0 0 0.08 0"/>
<feBlend mode="normal" in2="effect1_dropShadow_1080_1813" result="effect2_dropShadow_1080_1813"/>
<feBlend mode="normal" in="SourceGraphic" in2="effect2_dropShadow_1080_1813" result="shape"/>
</filter>
</defs>
</svg>
