<svg width="703" height="735" viewBox="0 0 703 735" fill="none" xmlns="http://www.w3.org/2000/svg">
<g clip-path="url(#clip0_1063_3685)">
<path d="M742.346 0H135.364C125.694 0 117.855 7.83909 117.855 17.5091V463.991C117.855 473.661 125.694 481.5 135.364 481.5H742.346C752.016 481.5 759.855 473.661 759.855 463.991V17.5091C759.855 7.83909 752.016 0 742.346 0Z" fill="#F3F5F8"/>
<path d="M117.855 17.5091C117.855 7.83908 125.694 0 135.364 0H742.346C752.017 0 759.855 7.83908 759.855 17.5091V70.0364H117.855V17.5091Z" fill="#E0E7EC"/>
<path fill-rule="evenodd" clip-rule="evenodd" d="M152.873 43.7728C157.708 43.7728 161.627 39.8534 161.627 35.0182C161.627 30.1831 157.708 26.2637 152.873 26.2637C148.038 26.2637 144.118 30.1831 144.118 35.0182C144.118 39.8534 148.038 43.7728 152.873 43.7728ZM182.055 43.7728C186.89 43.7728 190.809 39.8534 190.809 35.0182C190.809 30.1831 186.89 26.2637 182.055 26.2637C177.22 26.2637 173.3 30.1831 173.3 35.0182C173.3 39.8534 177.22 43.7728 182.055 43.7728ZM219.991 35.0182C219.991 39.8534 216.072 43.7728 211.237 43.7728C206.401 43.7728 202.482 39.8534 202.482 35.0182C202.482 30.1831 206.401 26.2637 211.237 26.2637C216.072 26.2637 219.991 30.1831 219.991 35.0182Z" fill="#94A2AB"/>
<path d="M231.664 99.2183H167.464C161.017 99.2183 155.791 104.444 155.791 110.891V175.091C155.791 181.538 161.017 186.764 167.464 186.764H231.664C238.111 186.764 243.337 181.538 243.337 175.091V110.891C243.337 104.444 238.111 99.2183 231.664 99.2183Z" fill="#FFD9C5"/>
<path d="M488.464 350.182H389.245C376.352 350.182 365.9 360.634 365.9 373.527C365.9 386.421 376.352 396.873 389.245 396.873H488.464C501.357 396.873 511.809 386.421 511.809 373.527C511.809 360.634 501.357 350.182 488.464 350.182Z" fill="#141DF7"/>
<path d="M710.246 215.946H167.464C161.017 215.946 155.791 221.172 155.791 227.618V431.891C155.791 438.338 161.017 443.564 167.464 443.564H710.246C716.692 443.564 721.918 438.338 721.918 431.891V227.618C721.918 221.172 716.692 215.946 710.246 215.946Z" stroke="#94A2AB" stroke-width="5.83636" stroke-linecap="round" stroke-dasharray="2.92 17.51"/>
<path fill-rule="evenodd" clip-rule="evenodd" d="M420.228 287.099C419.233 288.094 419.233 289.706 420.228 290.701C421.223 291.695 422.834 291.696 423.829 290.703L436.302 278.253V306.774C436.302 308.184 437.446 309.327 438.855 309.327C440.265 309.327 441.408 308.184 441.408 306.774V278.253L453.846 290.711C454.844 291.713 456.469 291.714 457.47 290.712C458.471 289.711 458.471 288.089 457.47 287.088L439.056 268.675C438.945 268.563 438.765 268.563 438.654 268.675L420.228 287.099Z" fill="#94A2AB"/>
<path fill-rule="evenodd" clip-rule="evenodd" d="M278.355 113.809C275.131 113.809 272.518 116.422 272.518 119.645V131.318C272.518 134.542 275.131 137.155 278.355 137.155H529.318C532.543 137.155 535.155 134.542 535.155 131.318V119.645C535.155 116.422 532.543 113.809 529.318 113.809H278.355ZM278.355 151.745C275.131 151.745 272.518 154.358 272.518 157.582V169.255C272.518 172.478 275.131 175.091 278.355 175.091H503.055C506.279 175.091 508.891 172.478 508.891 169.255V157.582C508.891 154.358 506.279 151.745 503.055 151.745H278.355Z" fill="#E0E7EC"/>
<g opacity="0.4">
<path fill-rule="evenodd" clip-rule="evenodd" d="M687.565 126.147C686.675 127.036 686.675 128.478 687.565 129.368L701.187 142.991L687.565 156.614C686.675 157.504 686.675 158.945 687.565 159.835C688.452 160.724 689.894 160.724 690.784 159.835L704.409 146.211L718.031 159.835C718.921 160.724 720.363 160.724 721.253 159.835C722.143 158.945 722.143 157.504 721.253 156.614L707.628 142.991L721.253 129.368C722.143 128.478 722.143 127.036 721.253 126.147C720.363 125.258 718.921 125.258 718.031 126.147L704.409 139.77L690.784 126.147C689.894 125.258 688.452 125.258 687.565 126.147Z" fill="#72808A"/>
</g>
</g>
<g clip-path="url(#clip1_1063_3685)" filter="url(#filter0_d_1063_3685)">
<path d="M660.636 192.541H53.6546C43.9846 192.541 36.1455 200.38 36.1455 210.05V656.532C36.1455 666.202 43.9846 674.041 53.6546 674.041H660.636C670.306 674.041 678.146 666.202 678.146 656.532V210.05C678.146 200.38 670.306 192.541 660.636 192.541Z" fill="#F3F5F8"/>
<path d="M36.1455 210.05C36.1455 200.38 43.9846 192.541 53.6546 192.541H660.636C670.307 192.541 678.146 200.38 678.146 210.05V262.577H36.1455V210.05Z" fill="#E0E7EC"/>
<path fill-rule="evenodd" clip-rule="evenodd" d="M71.1637 236.314C75.9988 236.314 79.9182 232.394 79.9182 227.559C79.9182 222.724 75.9988 218.804 71.1637 218.804C66.3285 218.804 62.4091 222.724 62.4091 227.559C62.4091 232.394 66.3285 236.314 71.1637 236.314ZM100.345 236.314C105.181 236.314 109.1 232.394 109.1 227.559C109.1 222.724 105.181 218.804 100.345 218.804C95.5104 218.804 91.591 222.724 91.591 227.559C91.591 232.394 95.5104 236.314 100.345 236.314ZM138.282 227.559C138.282 232.394 134.362 236.314 129.527 236.314C124.692 236.314 120.773 232.394 120.773 227.559C120.773 222.724 124.692 218.804 129.527 218.804C134.362 218.804 138.282 222.724 138.282 227.559Z" fill="#94A2AB"/>
<path d="M149.955 291.759H85.7547C79.308 291.759 74.0819 296.985 74.0819 303.432V367.632C74.0819 374.078 79.308 379.304 85.7547 379.304H149.955C156.401 379.304 161.627 374.078 161.627 367.632V303.432C161.627 296.985 156.401 291.759 149.955 291.759Z" fill="#FFD9C5"/>
<path d="M406.754 542.723H307.536C294.643 542.723 284.191 553.175 284.191 566.068C284.191 578.961 294.643 589.414 307.536 589.414H406.754C419.648 589.414 430.1 578.961 430.1 566.068C430.1 553.175 419.648 542.723 406.754 542.723Z" fill="#141DF7"/>
<path d="M628.536 408.486H85.7547C79.308 408.486 74.0819 413.712 74.0819 420.159V624.432C74.0819 630.878 79.308 636.105 85.7547 636.105H628.536C634.983 636.105 640.209 630.878 640.209 624.432V420.159C640.209 413.712 634.983 408.486 628.536 408.486Z" stroke="#94A2AB" stroke-width="5.83636" stroke-linecap="round" stroke-dasharray="2.92 17.51"/>
<path fill-rule="evenodd" clip-rule="evenodd" d="M338.519 479.64C337.524 480.635 337.524 482.247 338.519 483.242C339.514 484.236 341.125 484.237 342.12 483.244L354.592 470.793V499.315C354.592 500.724 355.736 501.868 357.146 501.868C358.555 501.868 359.699 500.724 359.699 499.315V470.793L372.136 483.251C373.135 484.254 374.76 484.254 375.761 483.253C376.762 482.252 376.762 480.63 375.761 479.629L357.347 461.216C357.236 461.104 357.055 461.104 356.944 461.216L338.519 479.64Z" fill="#94A2AB"/>
<path fill-rule="evenodd" clip-rule="evenodd" d="M196.646 306.35C193.422 306.35 190.809 308.963 190.809 312.186V323.859C190.809 327.082 193.422 329.695 196.646 329.695H447.609C450.834 329.695 453.446 327.082 453.446 323.859V312.186C453.446 308.963 450.834 306.35 447.609 306.35H196.646ZM196.646 344.286C193.422 344.286 190.809 346.899 190.809 350.123V361.795C190.809 365.019 193.422 367.632 196.646 367.632H421.346C424.57 367.632 427.182 365.019 427.182 361.795V350.123C427.182 346.899 424.57 344.286 421.346 344.286H196.646Z" fill="#E0E7EC"/>
<g opacity="0.4">
<path fill-rule="evenodd" clip-rule="evenodd" d="M605.856 318.688C604.966 319.577 604.966 321.019 605.856 321.908L619.478 335.532L605.856 349.155C604.966 350.044 604.966 351.486 605.856 352.376C606.743 353.265 608.185 353.265 609.075 352.376L622.7 338.752L636.322 352.376C637.212 353.265 638.653 353.265 639.543 352.376C640.433 351.486 640.433 350.044 639.543 349.155L625.918 335.532L639.543 321.908C640.433 321.019 640.433 319.577 639.543 318.688C638.653 317.798 637.212 317.798 636.322 318.688L622.7 332.311L609.075 318.688C608.185 317.798 606.743 317.798 605.856 318.688Z" fill="#72808A"/>
</g>
</g>
<defs>
<filter id="filter0_d_1063_3685" x="0.145508" y="180.541" width="714" height="553.5" filterUnits="userSpaceOnUse" color-interpolation-filters="sRGB">
<feFlood flood-opacity="0" result="BackgroundImageFix"/>
<feColorMatrix in="SourceAlpha" type="matrix" values="0 0 0 0 0 0 0 0 0 0 0 0 0 0 0 0 0 0 127 0" result="hardAlpha"/>
<feMorphology radius="12" operator="erode" in="SourceAlpha" result="effect1_dropShadow_1063_3685"/>
<feOffset dy="24"/>
<feGaussianBlur stdDeviation="24"/>
<feComposite in2="hardAlpha" operator="out"/>
<feColorMatrix type="matrix" values="0 0 0 0 0 0 0 0 0 0 0 0 0 0 0 0 0 0 0.18 0"/>
<feBlend mode="normal" in2="BackgroundImageFix" result="effect1_dropShadow_1063_3685"/>
<feBlend mode="normal" in="SourceGraphic" in2="effect1_dropShadow_1063_3685" result="shape"/>
</filter>
<clipPath id="clip0_1063_3685">
<rect width="642" height="481.5" fill="white" transform="translate(117.855)"/>
</clipPath>
<clipPath id="clip1_1063_3685">
<rect width="642" height="481.5" fill="white" transform="translate(36.1455 192.541)"/>
</clipPath>
</defs>
</svg>
