<svg width="305" height="295" viewBox="0 0 305 295" fill="none" xmlns="http://www.w3.org/2000/svg">
<g clip-path="url(#clip0_1095_3685)">
<path d="M297.738 0.800049H54.9455C51.0775 0.800049 47.9419 3.93568 47.9419 7.80369V186.396C47.9419 190.264 51.0775 193.4 54.9455 193.4H297.738C301.606 193.4 304.742 190.264 304.742 186.396V7.80369C304.742 3.93568 301.606 0.800049 297.738 0.800049Z" fill="#F3F5F8"/>
<path d="M47.9419 7.80369C47.9419 3.93568 51.0775 0.800049 54.9455 0.800049H297.738C301.607 0.800049 304.742 3.93568 304.742 7.80369V28.8146H47.9419V7.80369Z" fill="#E0E7EC"/>
<path fill-rule="evenodd" clip-rule="evenodd" d="M61.9491 18.3091C63.8832 18.3091 65.451 16.7413 65.451 14.8072C65.451 12.8732 63.8832 11.3054 61.9491 11.3054C60.0151 11.3054 58.4473 12.8732 58.4473 14.8072C58.4473 16.7413 60.0151 18.3091 61.9491 18.3091ZM73.6219 18.3091C75.5559 18.3091 77.1237 16.7413 77.1237 14.8072C77.1237 12.8732 75.5559 11.3054 73.6219 11.3054C71.6878 11.3054 70.1201 12.8732 70.1201 14.8072C70.1201 16.7413 71.6878 18.3091 73.6219 18.3091ZM88.7964 14.8072C88.7964 16.7413 87.2287 18.3091 85.2946 18.3091C83.3605 18.3091 81.7928 16.7413 81.7928 14.8072C81.7928 12.8732 83.3605 11.3054 85.2946 11.3054C87.2287 11.3054 88.7964 12.8732 88.7964 14.8072Z" fill="#94A2AB"/>
<path d="M93.4655 40.4873H67.7855C65.2069 40.4873 63.1165 42.5777 63.1165 45.1564V70.8364C63.1165 73.4151 65.2069 75.5055 67.7855 75.5055H93.4655C96.0442 75.5055 98.1346 73.4151 98.1346 70.8364V45.1564C98.1346 42.5777 96.0442 40.4873 93.4655 40.4873Z" fill="#FFD9C5"/>
<path d="M196.185 140.873H156.498C151.341 140.873 147.16 145.054 147.16 150.211C147.16 155.368 151.341 159.549 156.498 159.549H196.185C201.343 159.549 205.524 155.368 205.524 150.211C205.524 145.054 201.343 140.873 196.185 140.873Z" fill="#141DF7"/>
<path d="M284.898 87.1782H67.7855C65.2069 87.1782 63.1165 89.2686 63.1165 91.8473V173.556C63.1165 176.135 65.2069 178.226 67.7855 178.226H284.898C287.477 178.226 289.567 176.135 289.567 173.556V91.8473C289.567 89.2686 287.477 87.1782 284.898 87.1782Z" stroke="#94A2AB" stroke-width="2.33455" stroke-linecap="round" stroke-dasharray="1.17 7"/>
<path fill-rule="evenodd" clip-rule="evenodd" d="M168.891 115.64C168.493 116.038 168.493 116.683 168.891 117.081C169.289 117.478 169.934 117.478 170.332 117.081L175.321 112.101V123.51C175.321 124.073 175.778 124.531 176.342 124.531C176.906 124.531 177.363 124.073 177.363 123.51V112.101L182.338 117.084C182.737 117.485 183.388 117.485 183.788 117.085C184.188 116.685 184.188 116.036 183.788 115.635L176.423 108.27C176.378 108.225 176.306 108.225 176.261 108.27L168.891 115.64Z" fill="#94A2AB"/>
<path fill-rule="evenodd" clip-rule="evenodd" d="M112.142 46.3237C110.853 46.3237 109.807 47.3689 109.807 48.6583V53.3274C109.807 54.6167 110.853 55.6619 112.142 55.6619H212.527C213.817 55.6619 214.862 54.6167 214.862 53.3274V48.6583C214.862 47.3689 213.817 46.3237 212.527 46.3237H112.142ZM112.142 61.4983C110.853 61.4983 109.807 62.5435 109.807 63.8328V68.5019C109.807 69.7913 110.853 70.8365 112.142 70.8365H202.022C203.312 70.8365 204.356 69.7913 204.356 68.5019V63.8328C204.356 62.5435 203.312 61.4983 202.022 61.4983H112.142Z" fill="#E0E7EC"/>
<g opacity="0.4">
<path fill-rule="evenodd" clip-rule="evenodd" d="M275.826 51.2587C275.47 51.6145 275.47 52.1912 275.826 52.547L281.275 57.9963L275.826 63.4456C275.47 63.8014 275.47 64.3781 275.826 64.7339C276.181 65.0896 276.757 65.0896 277.113 64.7339L282.563 59.2845L288.012 64.7339C288.368 65.0896 288.945 65.0896 289.301 64.7339C289.657 64.3781 289.657 63.8014 289.301 63.4456L283.851 57.9963L289.301 52.547C289.657 52.1912 289.657 51.6145 289.301 51.2587C288.945 50.903 288.368 50.903 288.012 51.2587L282.563 56.7081L277.113 51.2587C276.757 50.903 276.181 50.903 275.826 51.2587Z" fill="#72808A"/>
</g>
</g>
<g clip-path="url(#clip1_1095_3685)" filter="url(#filter0_d_1095_3685)">
<path d="M265.055 77.8164H22.2618C18.3938 77.8164 15.2582 80.952 15.2582 84.82V263.413C15.2582 267.281 18.3938 270.416 22.2618 270.416H265.055C268.923 270.416 272.058 267.281 272.058 263.413V84.82C272.058 80.952 268.923 77.8164 265.055 77.8164Z" fill="#F3F5F8"/>
<path d="M15.2582 84.82C15.2582 80.952 18.3938 77.8164 22.2618 77.8164H265.055C268.923 77.8164 272.058 80.952 272.058 84.82V105.831H15.2582V84.82Z" fill="#E0E7EC"/>
<path fill-rule="evenodd" clip-rule="evenodd" d="M29.2655 95.3254C31.1995 95.3254 32.7673 93.7576 32.7673 91.8236C32.7673 89.8895 31.1995 88.3218 29.2655 88.3218C27.3314 88.3218 25.7637 89.8895 25.7637 91.8236C25.7637 93.7576 27.3314 95.3254 29.2655 95.3254ZM40.9382 95.3254C42.8723 95.3254 44.44 93.7576 44.44 91.8236C44.44 89.8895 42.8723 88.3218 40.9382 88.3218C39.0042 88.3218 37.4364 89.8895 37.4364 91.8236C37.4364 93.7576 39.0042 95.3254 40.9382 95.3254ZM56.1128 91.8236C56.1128 93.7576 54.545 95.3254 52.6109 95.3254C50.6769 95.3254 49.1091 93.7576 49.1091 91.8236C49.1091 89.8895 50.6769 88.3218 52.6109 88.3218C54.545 88.3218 56.1128 89.8895 56.1128 91.8236Z" fill="#94A2AB"/>
<path d="M60.7818 117.504H35.1018C32.5232 117.504 30.4327 119.594 30.4327 122.173V147.853C30.4327 150.431 32.5232 152.522 35.1018 152.522H60.7818C63.3605 152.522 65.4509 150.431 65.4509 147.853V122.173C65.4509 119.594 63.3605 117.504 60.7818 117.504Z" fill="#FFD9C5"/>
<path d="M163.502 217.889H123.814C118.657 217.889 114.476 222.07 114.476 227.227C114.476 232.385 118.657 236.566 123.814 236.566H163.502C168.659 236.566 172.84 232.385 172.84 227.227C172.84 222.07 168.659 217.889 163.502 217.889Z" fill="#141DF7"/>
<path d="M252.215 164.195H35.1018C32.5232 164.195 30.4327 166.285 30.4327 168.864V250.573C30.4327 253.151 32.5232 255.242 35.1018 255.242H252.215C254.793 255.242 256.884 253.151 256.884 250.573V168.864C256.884 166.285 254.793 164.195 252.215 164.195Z" stroke="#94A2AB" stroke-width="2.33455" stroke-linecap="round" stroke-dasharray="1.17 7"/>
<path fill-rule="evenodd" clip-rule="evenodd" d="M136.208 192.656C135.81 193.054 135.81 193.699 136.208 194.097C136.606 194.494 137.25 194.495 137.648 194.098L142.637 189.117V200.526C142.637 201.09 143.095 201.547 143.658 201.547C144.222 201.547 144.68 201.09 144.68 200.526V189.117L149.655 194.101C150.054 194.502 150.704 194.502 151.104 194.101C151.505 193.701 151.505 193.052 151.104 192.652L143.739 185.286C143.694 185.242 143.622 185.242 143.578 185.286L136.208 192.656Z" fill="#94A2AB"/>
<path fill-rule="evenodd" clip-rule="evenodd" d="M79.4582 123.34C78.1688 123.34 77.1237 124.385 77.1237 125.674V130.343C77.1237 131.633 78.1688 132.678 79.4582 132.678H179.844C181.133 132.678 182.178 131.633 182.178 130.343V125.674C182.178 124.385 181.133 123.34 179.844 123.34H79.4582ZM79.4582 138.514C78.1688 138.514 77.1237 139.56 77.1237 140.849V145.518C77.1237 146.807 78.1688 147.853 79.4582 147.853H169.338C170.628 147.853 171.673 146.807 171.673 145.518V140.849C171.673 139.56 170.628 138.514 169.338 138.514H79.4582Z" fill="#E0E7EC"/>
<g opacity="0.4">
<path fill-rule="evenodd" clip-rule="evenodd" d="M243.142 128.275C242.786 128.631 242.786 129.208 243.142 129.563L248.591 135.013L243.142 140.462C242.786 140.818 242.786 141.394 243.142 141.75C243.497 142.106 244.074 142.106 244.43 141.75L249.88 136.301L255.329 141.75C255.685 142.106 256.261 142.106 256.617 141.75C256.973 141.394 256.973 140.818 256.617 140.462L251.167 135.013L256.617 129.563C256.973 129.208 256.973 128.631 256.617 128.275C256.261 127.919 255.685 127.919 255.329 128.275L249.88 133.724L244.43 128.275C244.074 127.919 243.497 127.919 243.142 128.275Z" fill="#72808A"/>
</g>
</g>
<defs>
<filter id="filter0_d_1095_3685" x="0.858178" y="73.0164" width="285.6" height="221.4" filterUnits="userSpaceOnUse" color-interpolation-filters="sRGB">
<feFlood flood-opacity="0" result="BackgroundImageFix"/>
<feColorMatrix in="SourceAlpha" type="matrix" values="0 0 0 0 0 0 0 0 0 0 0 0 0 0 0 0 0 0 127 0" result="hardAlpha"/>
<feMorphology radius="4.8" operator="erode" in="SourceAlpha" result="effect1_dropShadow_1095_3685"/>
<feOffset dy="9.6"/>
<feGaussianBlur stdDeviation="9.6"/>
<feComposite in2="hardAlpha" operator="out"/>
<feColorMatrix type="matrix" values="0 0 0 0 0 0 0 0 0 0 0 0 0 0 0 0 0 0 0.18 0"/>
<feBlend mode="normal" in2="BackgroundImageFix" result="effect1_dropShadow_1095_3685"/>
<feBlend mode="normal" in="SourceGraphic" in2="effect1_dropShadow_1095_3685" result="shape"/>
</filter>
<clipPath id="clip0_1095_3685">
<rect width="256.8" height="192.6" fill="white" transform="translate(47.9419 0.800049)"/>
</clipPath>
<clipPath id="clip1_1095_3685">
<rect width="256.8" height="192.6" fill="white" transform="translate(15.2582 77.8164)"/>
</clipPath>
</defs>
</svg>
