<svg width="208" height="36" viewBox="0 0 208 36" fill="none" xmlns="http://www.w3.org/2000/svg">
<path d="M50.8428 10.9364H50.6439C50.3514 10.3715 50.0013 9.83836 49.5992 9.34545C49.0948 8.75184 48.4739 8.26812 47.775 7.92424C46.8588 7.49199 45.8521 7.28646 44.8398 7.325C43.3401 7.30749 41.8671 7.72268 40.5973 8.52083C39.2721 9.38292 38.2228 10.608 37.5746 12.05C36.8287 13.6073 36.4566 15.5138 36.4583 17.7693C36.4583 19.9984 36.8242 21.8933 37.5561 23.4542C38.1941 24.9007 39.2305 26.1357 40.5443 27.0152C41.8192 27.8407 43.3105 28.2689 44.8292 28.2455C45.8275 28.2794 46.8199 28.0797 47.7273 27.6621C48.4341 27.322 49.0653 26.8432 49.5833 26.2542C49.9963 25.7746 50.3522 25.2487 50.6439 24.6871H50.9329V27.8875H55.642V0.807576H50.8428V10.9364ZM50.3788 21.1818C50.0655 22.0895 49.502 22.8901 48.7534 23.4913C47.9848 24.0323 47.0667 24.3205 46.1268 24.3157C45.1869 24.311 44.2718 24.0135 43.5087 23.4648C42.7633 22.8496 42.2041 22.0388 41.8939 21.1235C41.5094 20.0358 41.3208 18.8884 41.3371 17.7348C41.313 16.5924 41.4926 15.4548 41.8674 14.3754C42.1771 13.4702 42.7381 12.6719 43.4848 12.0739C44.2595 11.5364 45.1788 11.2462 46.1216 11.2414C47.0645 11.2367 47.9866 11.5177 48.7667 12.0473C49.5091 12.6306 50.0686 13.4147 50.3788 14.3064C50.7691 15.4064 50.9577 16.5679 50.9356 17.7348C50.957 18.9078 50.7685 20.0752 50.3788 21.1818Z" fill="#0006A2"/>
<path d="M71.3045 8.78598C70.4928 8.25881 69.5956 7.87662 68.653 7.65644C67.6973 7.43027 66.7185 7.31549 65.7364 7.31439C64.4144 7.29897 63.0996 7.51063 61.8492 7.94015C60.7223 8.32668 59.7003 8.96926 58.8636 9.81742C58.0313 10.689 57.4314 11.7557 57.1189 12.9197L61.5867 13.5534C61.8521 12.8232 62.3341 12.1914 62.9682 11.7424C63.6523 11.2298 64.5803 10.9744 65.7523 10.9761C66.8624 10.9761 67.7126 11.2492 68.303 11.7955C68.8934 12.3417 69.1939 13.1133 69.2045 14.1102V14.1898C69.2158 14.3904 69.1724 14.5903 69.079 14.7682C68.9856 14.9461 68.8457 15.0953 68.6742 15.2C68.1715 15.4656 67.6206 15.6279 67.0542 15.6773C66.3117 15.778 65.3466 15.8903 64.1587 16.014C63.1933 16.1159 62.2364 16.286 61.2951 16.5231C60.4218 16.7373 59.5859 17.0823 58.8159 17.5466C58.0937 17.9869 57.4973 18.6061 57.0845 19.3443C56.6305 20.221 56.4112 21.2002 56.4481 22.1867C56.4084 23.3701 56.7193 24.5389 57.3417 25.5462C57.9356 26.4536 58.7816 27.1678 59.7758 27.6011C60.8696 28.0786 62.0532 28.3156 63.2466 28.2958C64.191 28.3155 65.1313 28.1656 66.0227 27.853C67.3966 27.3683 68.5374 26.3837 69.2178 25.0955H69.3742V27.8875H73.9773V14.2879C74.0173 13.1209 73.7648 11.9624 73.2428 10.9178C72.7851 10.0563 72.1187 9.32334 71.3045 8.78598ZM69.2045 20.6011C69.2088 21.3331 69.0096 22.0519 68.6292 22.6773C68.2311 23.3233 67.6671 23.8507 66.9958 24.2045C66.2239 24.6032 65.364 24.801 64.4955 24.7799C63.6279 24.8125 62.7716 24.5743 62.0455 24.0985C61.7274 23.8758 61.4717 23.5754 61.3028 23.2259C61.1338 22.8764 61.0572 22.4894 61.0803 22.1019C61.0566 21.5559 61.2297 21.0196 61.5682 20.5905C61.9246 20.176 62.3809 19.8593 62.8939 19.6705C63.5121 19.4369 64.1555 19.2767 64.811 19.1932L65.9352 19.0367C66.3674 18.9731 66.8023 18.9042 67.2451 18.8246C67.6482 18.7579 68.0474 18.6694 68.4409 18.5595C68.7138 18.4928 68.9718 18.3759 69.2019 18.2148L69.2045 20.6011Z" fill="#0006A2"/>
<path d="M86.2273 16.303L82.7617 15.5633C81.7329 15.3246 80.9932 15.033 80.5477 14.6511C80.3333 14.4793 80.1624 14.2594 80.0486 14.0093C79.9348 13.7592 79.8815 13.4859 79.8928 13.2114C79.8928 12.522 80.226 11.9616 80.8924 11.5303C81.6474 11.0767 82.5179 10.8519 83.3981 10.8833C84.0425 10.8644 84.6832 10.9866 85.2754 11.2413C85.7525 11.4511 86.1718 11.7731 86.4977 12.1799C86.7915 12.5471 87.0096 12.9689 87.1394 13.4208L91.5038 12.9462C91.2258 11.2952 90.312 9.81889 88.9583 8.83371C87.5884 7.82083 85.7129 7.31439 83.3318 7.31439C81.866 7.28556 80.4087 7.54316 79.0417 8.07273C77.8989 8.50884 76.8974 9.24982 76.1462 10.2152C75.4482 11.1555 75.0868 12.3033 75.1201 13.4739C75.0929 14.1476 75.2019 14.8198 75.4407 15.4504C75.6794 16.0809 76.0429 16.6568 76.5095 17.1436C77.4428 18.1087 78.8835 18.7937 80.8314 19.1985L84.297 19.9277C85.2303 20.1292 85.9197 20.4199 86.3652 20.8C86.579 20.9736 86.7504 21.1939 86.8662 21.4439C86.982 21.6938 87.0392 21.967 87.0333 22.2424C87.0333 22.9318 86.6886 23.5072 85.9966 23.9765C85.3045 24.4458 84.3898 24.6765 83.2523 24.6765C82.1148 24.6765 81.2557 24.4432 80.5689 23.9765C79.8663 23.4862 79.3822 22.7415 79.2193 21.9004L74.5527 22.3485C74.6684 23.2274 74.9699 24.0716 75.4372 24.8251C75.9044 25.5785 76.5266 26.2238 77.2625 26.7182C78.7792 27.7629 80.7802 28.2852 83.2655 28.2852C84.8077 28.3157 86.3403 28.0371 87.7731 27.4659C88.9794 26.9931 90.0369 26.2057 90.8356 25.1856C91.5704 24.2137 91.963 23.0259 91.9519 21.8076C91.9519 20.3528 91.4781 19.1755 90.5307 18.2758C89.5832 17.376 88.1487 16.7184 86.2273 16.303Z" fill="#0006A2"/>
<path d="M107.19 8.18939C106.059 7.57786 104.787 7.27257 103.502 7.30379C101.95 7.30379 100.674 7.63611 99.6731 8.30076C98.6776 8.96232 97.9057 9.90983 97.4591 11.0186H97.2205V0.807576H92.5379V27.8875H97.3239V15.9875C97.3004 15.1217 97.4946 14.2638 97.8886 13.4924C98.2432 12.8214 98.786 12.2685 99.4504 11.9015C100.148 11.5344 100.929 11.3519 101.717 11.3712C102.978 11.3712 103.958 11.753 104.658 12.5167C105.358 13.2803 105.711 14.3409 105.719 15.6985V27.8955H110.505V14.9561C110.505 13.3139 110.216 11.9254 109.637 10.7905C109.106 9.6945 108.252 8.78699 107.19 8.18939Z" fill="#0006A2"/>
<path d="M122.786 16.303L119.318 15.5633C118.287 15.3246 117.547 15.033 117.102 14.6511C116.887 14.4796 116.716 14.2597 116.603 14.0095C116.489 13.7593 116.437 13.4858 116.449 13.2114C116.449 12.522 116.773 11.9625 117.446 11.5303C118.201 11.0767 119.072 10.8519 119.952 10.8833C120.596 10.8644 121.237 10.9866 121.829 11.2413C122.307 11.4505 122.726 11.7726 123.052 12.1799C123.346 12.5465 123.564 12.9684 123.693 13.4208L128.068 12.9462C127.79 11.2952 126.876 9.81889 125.523 8.83371C124.153 7.82083 122.277 7.31439 119.896 7.31439C118.43 7.28556 116.973 7.54316 115.606 8.07273C114.463 8.50884 113.462 9.24982 112.711 10.2152C112.013 11.1555 111.651 12.3033 111.684 13.4739C111.658 14.1475 111.767 14.8196 112.006 15.45C112.245 16.0805 112.608 16.6565 113.074 17.1436C114.007 18.1087 115.449 18.7937 117.398 19.1985L120.861 19.9277C121.795 20.1292 122.487 20.4208 122.93 20.8C123.142 20.9742 123.313 21.1946 123.428 21.4446C123.543 21.6945 123.599 21.9674 123.592 22.2424C123.592 22.9318 123.248 23.5072 122.556 23.9765C121.864 24.4458 120.949 24.6765 119.811 24.6765C118.674 24.6765 117.815 24.4432 117.128 23.9765C116.426 23.4854 115.942 22.7411 115.778 21.9004L111.112 22.3485C111.228 23.2274 111.529 24.0716 111.996 24.8251C112.463 25.5785 113.086 26.2238 113.822 26.7182C115.338 27.7629 117.339 28.2852 119.825 28.2852C121.367 28.3151 122.899 28.0366 124.332 27.4659C125.537 26.9924 126.594 26.2051 127.392 25.1856C128.127 24.2137 128.519 23.0259 128.508 21.8076C128.508 20.3528 128.035 19.1755 127.087 18.2758C126.14 17.376 124.706 16.7184 122.786 16.303Z" fill="#0006A2"/>
<path d="M138.229 24.064C137.956 24.1105 137.68 24.1327 137.404 24.1303C137.035 24.1351 136.667 24.0731 136.32 23.9473C135.981 23.8165 135.699 23.5706 135.524 23.2526C135.3 22.795 135.198 22.2872 135.227 21.7784V11.2784H139.234V7.56629H135.227V2.71136H130.455V7.57689H127.567V11.289H130.455V22.5712C130.403 23.691 130.691 24.8003 131.282 25.753C131.834 26.5936 132.63 27.2458 133.562 27.6223C134.589 28.0371 135.693 28.2243 136.8 28.1712C137.38 28.1654 137.958 28.1033 138.526 27.9856C138.895 27.9088 139.259 27.8124 139.618 27.6966L138.823 23.9553C138.674 23.9818 138.481 24.0216 138.229 24.064Z" fill="#0006A2"/>
<path d="M153.788 8.78598C152.975 8.26064 152.078 7.87942 151.136 7.65909C150.181 7.43292 149.202 7.31814 148.22 7.31704C146.898 7.30141 145.583 7.51308 144.333 7.9428C143.209 8.32957 142.19 8.97224 141.358 9.82008C140.524 10.6915 139.924 11.7582 139.61 12.9223L144.081 13.5561C144.345 12.8253 144.827 12.1933 145.462 11.7451C146.143 11.2324 147.07 10.977 148.244 10.9788C149.354 10.9788 150.205 11.2519 150.797 11.7981C151.389 12.3443 151.679 13.115 151.667 14.1102V14.1898C151.68 14.3883 151.64 14.5868 151.55 14.7645C151.461 14.9422 151.325 15.0926 151.158 15.2C150.655 15.4656 150.104 15.6279 149.537 15.6773C148.799 15.778 147.833 15.8903 146.642 16.014C145.678 16.1161 144.722 16.2862 143.781 16.5231C142.916 16.7386 142.088 17.0836 141.326 17.5466C140.603 17.9876 140.006 18.6066 139.592 19.3443C139.133 20.2199 138.909 21.1989 138.939 22.1867C138.898 23.3703 139.209 24.5394 139.833 25.5462C140.426 26.4532 141.271 27.1674 142.264 27.6011C143.358 28.0784 144.542 28.3153 145.735 28.2958C146.678 28.3143 147.616 28.1644 148.506 27.853C149.876 27.3668 151.012 26.3821 151.688 25.0955H151.847V27.8875H156.447V14.2879C156.489 13.1207 156.236 11.9619 155.713 10.9178C155.259 10.0579 154.597 9.32504 153.788 8.78598ZM151.685 20.6011C151.691 21.3333 151.491 22.0524 151.11 22.6773C150.712 23.3233 150.148 23.8507 149.477 24.2045C148.705 24.6029 147.846 24.8008 146.979 24.7799C146.109 24.813 145.251 24.5749 144.523 24.0985C144.206 23.8755 143.95 23.575 143.781 23.2256C143.613 22.8762 143.536 22.4894 143.558 22.1019C143.535 21.5556 143.709 21.0192 144.049 20.5905C144.405 20.1762 144.862 19.8596 145.375 19.6705C145.993 19.4369 146.636 19.2767 147.292 19.1932L148.416 19.0367C148.848 18.9731 149.286 18.9042 149.726 18.8246C150.129 18.7582 150.528 18.6697 150.922 18.5595C151.195 18.4934 151.453 18.3765 151.683 18.2148L151.685 20.6011Z" fill="#0006A2"/>
<path d="M180.152 7.31439C178.806 7.27733 177.478 7.628 176.326 8.32462C175.292 8.9543 174.491 9.90375 174.045 11.0292H173.833C173.48 9.92937 172.777 8.97507 171.831 8.31136C170.81 7.62752 169.6 7.27905 168.371 7.31439C167.13 7.2801 165.908 7.62311 164.866 8.29811C163.887 8.95611 163.149 9.91473 162.763 11.0292H162.527V7.5822H157.938V27.8928H162.726V15.5367C162.709 14.773 162.881 14.017 163.227 13.336C163.536 12.7334 164.003 12.2258 164.577 11.867C165.14 11.5159 165.791 11.332 166.454 11.3367C166.907 11.3182 167.36 11.3918 167.783 11.5532C168.207 11.7145 168.594 11.9602 168.92 12.2754C169.24 12.6081 169.489 13.0027 169.651 13.4349C169.813 13.8671 169.886 14.3279 169.864 14.789V27.8795H174.56V15.2186C174.518 14.2002 174.865 13.204 175.53 12.4318C176.177 11.7141 177.079 11.3544 178.235 11.3527C179.135 11.3283 180.012 11.6424 180.693 12.233C181.363 12.8181 181.698 13.7417 181.698 15.0038V27.8955H186.497V14.2534C186.497 11.989 185.907 10.2664 184.726 9.08561C183.545 7.9048 182.02 7.31439 180.152 7.31439Z" fill="#0006A2"/>
<path d="M206.068 12.0394C205.421 10.599 204.375 9.37426 203.053 8.51023C201.783 7.71221 200.31 7.29704 198.811 7.31439C197.795 7.27787 196.785 7.48708 195.867 7.92424C195.166 8.27403 194.544 8.76511 194.041 9.36667C193.638 9.8589 193.287 10.3921 192.996 10.9576H192.731V7.57689H188.011V35.5H192.8V24.6871H192.996C193.298 25.247 193.66 25.7724 194.075 26.2542C194.587 26.8443 195.214 27.3234 195.918 27.6621C196.825 28.0786 197.818 28.2774 198.816 28.2428C200.336 28.2682 201.829 27.8409 203.106 27.0152C204.421 26.1336 205.458 24.8956 206.094 23.4462C206.826 21.8871 207.192 19.9922 207.192 17.7614C207.192 15.5306 206.817 13.6232 206.068 12.0394ZM201.756 21.1235C201.443 22.0387 200.882 22.8491 200.136 23.4648C199.374 24.0152 198.46 24.3136 197.52 24.3184C196.58 24.3232 195.662 24.034 194.894 23.4913C194.147 22.8886 193.584 22.0885 193.269 21.1818C192.874 20.0766 192.683 18.9085 192.707 17.7348C192.682 16.5692 192.868 15.4088 193.256 14.3091C193.569 13.4135 194.136 12.6279 194.886 12.0473C195.665 11.5177 196.586 11.2366 197.527 11.2413C198.469 11.2461 199.387 11.5364 200.16 12.0739C200.905 12.6721 201.465 13.4692 201.775 14.3727C202.151 15.453 202.332 16.5913 202.311 17.7348C202.328 18.8883 202.14 20.0356 201.756 21.1235Z" fill="#0006A2"/>
<path d="M4.97159 11.4375H0V16.0777H4.97159V11.4375Z" fill="#3338B5"/>
<path d="M14.9148 11.4375H9.94318V16.0777H14.9148V11.4375Z" fill="#999BDA"/>
<path d="M9.94318 11.4375H4.97159V16.0777H9.94318V11.4375Z" fill="#666AC7"/>
<path d="M19.8864 11.4375H14.9148V16.0777H19.8864V11.4375Z" fill="#CCCDEC"/>
<path d="M18.2292 0.5H4.97159V5.14015H18.2292C20.5146 5.14015 22.7065 6.04806 24.3226 7.66414C25.9387 9.28022 26.8466 11.4721 26.8466 13.7576C26.8466 16.0431 25.9387 18.2349 24.3226 19.851C22.7065 21.4671 20.5146 22.375 18.2292 22.375H4.97159V27.0152H18.2292C21.7453 27.0152 25.1174 25.6184 27.6037 23.1321C30.09 20.6458 31.4867 17.2737 31.4867 13.7576C31.4867 10.2414 30.09 6.86933 27.6037 4.38305C25.1174 1.89678 21.7453 0.5 18.2292 0.5Z" fill="#0006A2"/>
</svg>
