<svg width="208" height="36" viewBox="0 0 208 36" fill="none" xmlns="http://www.w3.org/2000/svg">
<path d="M50.8428 11.325H50.6439C50.3514 10.7602 50.0013 10.227 49.5992 9.73413C49.0948 9.14052 48.4739 8.65679 47.775 8.31291C46.8588 7.88066 45.8521 7.67513 44.8398 7.71367C43.3401 7.69616 41.8671 8.11135 40.5973 8.9095C39.2721 9.77159 38.2228 10.9967 37.5746 12.4387C36.8287 13.996 36.4566 15.9024 36.4583 18.158C36.4583 20.387 36.8242 22.282 37.5561 23.8428C38.1941 25.2893 39.2305 26.5244 40.5443 27.4038C41.8192 28.2294 43.3105 28.6576 44.8292 28.6341C45.8275 28.6681 46.8199 28.4683 47.7273 28.0508C48.4341 27.7107 49.0653 27.2319 49.5833 26.6428C49.9963 26.1632 50.3522 25.6374 50.6439 25.0758H50.9329V28.2762H55.642V1.19625H50.8428V11.325ZM50.3788 21.5705C50.0655 22.4781 49.502 23.2787 48.7534 23.88C47.9848 24.421 47.0667 24.7091 46.1268 24.7044C45.1869 24.6996 44.2718 24.4022 43.5087 23.8534C42.7633 23.2383 42.2041 22.4275 41.8939 21.5122C41.5094 20.4244 41.3208 19.2771 41.3371 18.1235C41.313 16.9811 41.4926 15.8435 41.8674 14.7641C42.1771 13.8589 42.7381 13.0606 43.4848 12.4625C44.2595 11.9251 45.1788 11.6348 46.1216 11.6301C47.0645 11.6254 47.9866 11.9064 48.7667 12.436C49.5091 13.0193 50.0686 13.8034 50.3788 14.6951C50.7691 15.7951 50.9577 16.9565 50.9356 18.1235C50.957 19.2965 50.7685 20.4639 50.3788 21.5705Z" fill="white"/>
<path d="M71.3045 9.17466C70.4928 8.64749 69.5956 8.26529 68.653 8.04511C67.6973 7.81894 66.7185 7.70416 65.7364 7.70307C64.4144 7.68765 63.0996 7.89931 61.8492 8.32882C60.7223 8.71535 59.7003 9.35794 58.8636 10.2061C58.0313 11.0776 57.4314 12.1444 57.1189 13.3084L61.5867 13.9421C61.8521 13.2118 62.3341 12.58 62.9682 12.1311C63.6523 11.6185 64.5803 11.363 65.7523 11.3648C66.8624 11.3648 67.7126 11.6379 68.303 12.1841C68.8934 12.7303 69.1939 13.5019 69.2045 14.4989V14.5784C69.2158 14.779 69.1724 14.9789 69.079 15.1568C68.9856 15.3347 68.8457 15.484 68.6742 15.5887C68.1715 15.8543 67.6206 16.0165 67.0542 16.0659C66.3117 16.1667 65.3466 16.2789 64.1587 16.4027C63.1933 16.5045 62.2364 16.6747 61.2951 16.9118C60.4218 17.126 59.5859 17.471 58.8159 17.9353C58.0937 18.3756 57.4973 18.9948 57.0845 19.733C56.6305 20.6096 56.4112 21.5889 56.4481 22.5754C56.4084 23.7588 56.7193 24.9276 57.3417 25.9349C57.9356 26.8423 58.7816 27.5565 59.7758 27.9898C60.8696 28.4673 62.0532 28.7042 63.2466 28.6845C64.191 28.7042 65.1313 28.5542 66.0227 28.2417C67.3966 27.7569 68.5374 26.7723 69.2178 25.4841H69.3742V28.2762H73.9773V14.6765C74.0173 13.5095 73.7648 12.351 73.2428 11.3065C72.7851 10.445 72.1187 9.71201 71.3045 9.17466ZM69.2045 20.9898C69.2088 21.7218 69.0096 22.4406 68.6292 23.0659C68.2311 23.7119 67.6671 24.2394 66.9958 24.5932C66.2239 24.9918 65.364 25.1897 64.4955 25.1686C63.6279 25.2011 62.7716 24.963 62.0455 24.4872C61.7274 24.2645 61.4717 23.9641 61.3028 23.6146C61.1338 23.2651 61.0572 22.8781 61.0803 22.4906C61.0566 21.9446 61.2297 21.4083 61.5682 20.9792C61.9246 20.5647 62.3809 20.248 62.8939 20.0591C63.5121 19.8256 64.1555 19.6654 64.811 19.5819L65.9352 19.4254C66.3674 19.3618 66.8023 19.2928 67.2451 19.2133C67.6482 19.1466 68.0474 19.0581 68.4409 18.9481C68.7138 18.8815 68.9718 18.7646 69.2019 18.6034L69.2045 20.9898Z" fill="white"/>
<path d="M86.2273 16.6917L82.7617 15.9519C81.7329 15.7133 80.9932 15.4216 80.5477 15.0398C80.3333 14.868 80.1624 14.6481 80.0486 14.398C79.9348 14.1479 79.8815 13.8746 79.8928 13.6C79.8928 12.9106 80.226 12.3503 80.8924 11.919C81.6474 11.4653 82.5179 11.2406 83.3981 11.272C84.0425 11.2531 84.6832 11.3753 85.2754 11.63C85.7525 11.8398 86.1718 12.1618 86.4977 12.5686C86.7915 12.9358 87.0096 13.3575 87.1394 13.8095L91.5038 13.3349C91.2258 11.6839 90.312 10.2076 88.9583 9.22238C87.5884 8.20951 85.7129 7.70307 83.3318 7.70307C81.866 7.67423 80.4087 7.93183 79.0417 8.4614C77.8989 8.89752 76.8974 9.6385 76.1462 10.6038C75.4482 11.5441 75.0868 12.6919 75.1201 13.8625C75.0929 14.5362 75.2019 15.2085 75.4407 15.839C75.6794 16.4696 76.0429 17.0455 76.5095 17.5322C77.4428 18.4974 78.8835 19.1824 80.8314 19.5872L84.297 20.3163C85.2303 20.5178 85.9197 20.8086 86.3652 21.1887C86.579 21.3623 86.7504 21.5825 86.8662 21.8325C86.982 22.0825 87.0392 22.3557 87.0333 22.6311C87.0333 23.3205 86.6886 23.8959 85.9966 24.3652C85.3045 24.8345 84.3898 25.0652 83.2523 25.0652C82.1148 25.0652 81.2557 24.8319 80.5689 24.3652C79.8663 23.8749 79.3822 23.1302 79.2193 22.289L74.5527 22.7372C74.6684 23.6161 74.9699 24.4603 75.4372 25.2137C75.9044 25.9671 76.5266 26.6125 77.2625 27.1069C78.7792 28.1515 80.7802 28.6739 83.2655 28.6739C84.8077 28.7044 86.3403 28.4258 87.7731 27.8546C88.9794 27.3818 90.0369 26.5944 90.8356 25.5743C91.5704 24.6024 91.963 23.4146 91.9519 22.1962C91.9519 20.7414 91.4781 19.5642 90.5307 18.6644C89.5832 17.7647 88.1487 17.1071 86.2273 16.6917Z" fill="white"/>
<path d="M107.19 8.57807C106.059 7.96653 104.787 7.66124 103.502 7.69246C101.95 7.69246 100.674 8.02478 99.6731 8.68943C98.6776 9.35099 97.9057 10.2985 97.4591 11.4072H97.2205V1.19625H92.5379V28.2762H97.3239V16.3762C97.3004 15.5103 97.4946 14.6524 97.8886 13.8811C98.2432 13.2101 98.786 12.6571 99.4504 12.2902C100.148 11.9231 100.929 11.7405 101.717 11.7599C102.978 11.7599 103.958 12.1417 104.658 12.9053C105.358 13.669 105.711 14.7296 105.719 16.0872V28.2841H110.505V15.3447C110.505 13.7026 110.216 12.3141 109.637 11.1792C109.106 10.0832 108.252 9.17567 107.19 8.57807Z" fill="white"/>
<path d="M122.786 16.6917L119.318 15.9519C118.287 15.7133 117.547 15.4216 117.102 15.0398C116.887 14.8682 116.716 14.6484 116.603 14.3982C116.489 14.1479 116.437 13.8745 116.449 13.6C116.449 12.9106 116.773 12.3512 117.446 11.919C118.201 11.4653 119.072 11.2406 119.952 11.272C120.596 11.2531 121.237 11.3753 121.829 11.63C122.307 11.8392 122.726 12.1613 123.052 12.5686C123.346 12.9351 123.564 13.3571 123.693 13.8095L128.068 13.3349C127.79 11.6839 126.876 10.2076 125.523 9.22238C124.153 8.20951 122.277 7.70307 119.896 7.70307C118.43 7.67423 116.973 7.93183 115.606 8.4614C114.463 8.89752 113.462 9.6385 112.711 10.6038C112.013 11.5441 111.651 12.6919 111.684 13.8625C111.658 14.5362 111.767 15.2082 112.006 15.8387C112.245 16.4692 112.608 17.0451 113.074 17.5322C114.007 18.4974 115.449 19.1824 117.398 19.5872L120.861 20.3163C121.795 20.5178 122.487 20.8095 122.93 21.1887C123.142 21.3628 123.313 21.5833 123.428 21.8333C123.543 22.0832 123.599 22.3561 123.592 22.6311C123.592 23.3205 123.248 23.8959 122.556 24.3652C121.864 24.8345 120.949 25.0652 119.811 25.0652C118.674 25.0652 117.815 24.8319 117.128 24.3652C116.426 23.8741 115.942 23.1298 115.778 22.289L111.112 22.7372C111.228 23.6161 111.529 24.4603 111.996 25.2137C112.463 25.9671 113.086 26.6125 113.822 27.1069C115.338 28.1515 117.339 28.6739 119.825 28.6739C121.367 28.7038 122.899 28.4252 124.332 27.8546C125.537 27.3811 126.594 26.5937 127.392 25.5743C128.127 24.6024 128.519 23.4146 128.508 22.1962C128.508 20.7414 128.035 19.5642 127.087 18.6644C126.14 17.7647 124.706 17.1071 122.786 16.6917Z" fill="white"/>
<path d="M138.229 24.4527C137.956 24.4992 137.68 24.5214 137.404 24.519C137.035 24.5238 136.667 24.4618 136.32 24.336C135.981 24.2052 135.699 23.9592 135.524 23.6413C135.3 23.1836 135.198 22.6759 135.227 22.1671V11.6671H139.234V7.95496H135.227V3.10004H130.455V7.96557H127.567V11.6777H130.455V22.9599C130.403 24.0797 130.691 25.189 131.282 26.1417C131.834 26.9823 132.63 27.6344 133.562 28.011C134.589 28.4258 135.693 28.613 136.8 28.5599C137.38 28.5541 137.958 28.492 138.526 28.3743C138.895 28.2975 139.259 28.201 139.618 28.0853L138.823 24.344C138.674 24.3705 138.481 24.4103 138.229 24.4527Z" fill="white"/>
<path d="M153.788 9.17466C152.975 8.64932 152.078 8.26809 151.136 8.04776C150.181 7.82159 149.202 7.70681 148.22 7.70572C146.898 7.69009 145.583 7.90175 144.333 8.33147C143.209 8.71824 142.19 9.36091 141.358 10.2087C140.524 11.0801 139.924 12.1469 139.61 13.311L144.081 13.9447C144.345 13.214 144.827 12.5819 145.462 12.1337C146.143 11.6211 147.07 11.3657 148.244 11.3675C149.354 11.3675 150.205 11.6406 150.797 12.1868C151.389 12.733 151.679 13.5037 151.667 14.4989V14.5784C151.68 14.777 151.64 14.9755 151.55 15.1532C151.461 15.3309 151.325 15.4813 151.158 15.5887C150.655 15.8543 150.104 16.0165 149.537 16.0659C148.799 16.1667 147.833 16.2789 146.642 16.4027C145.678 16.5048 144.722 16.6749 143.781 16.9118C142.916 17.1273 142.088 17.4723 141.326 17.9353C140.603 18.3762 140.006 18.9952 139.592 19.733C139.133 20.6086 138.909 21.5876 138.939 22.5754C138.898 23.759 139.209 24.9281 139.833 25.9349C140.426 26.8419 141.271 27.5561 142.264 27.9898C143.358 28.4671 144.542 28.704 145.735 28.6845C146.678 28.703 147.616 28.553 148.506 28.2417C149.876 27.7554 151.012 26.7708 151.688 25.4841H151.847V28.2762H156.447V14.6765C156.489 13.5094 156.236 12.3506 155.713 11.3065C155.259 10.4465 154.597 9.71371 153.788 9.17466ZM151.685 20.9898C151.691 21.722 151.491 22.4411 151.11 23.0659C150.712 23.7119 150.148 24.2394 149.477 24.5932C148.705 24.9916 147.846 25.1895 146.979 25.1686C146.109 25.2017 145.251 24.9636 144.523 24.4872C144.206 24.2642 143.95 23.9637 143.781 23.6143C143.613 23.2648 143.536 22.878 143.558 22.4906C143.535 21.9443 143.709 21.4079 144.049 20.9792C144.405 20.5649 144.862 20.2483 145.375 20.0591C145.993 19.8256 146.636 19.6654 147.292 19.5819L148.416 19.4254C148.848 19.3618 149.286 19.2928 149.726 19.2133C150.129 19.1469 150.528 19.0584 150.922 18.9481C151.195 18.8821 151.453 18.7651 151.683 18.6034L151.685 20.9898Z" fill="white"/>
<path d="M180.152 7.70307C178.806 7.666 177.478 8.01667 176.326 8.71329C175.292 9.34297 174.491 10.2924 174.045 11.4178H173.833C173.48 10.318 172.777 9.36374 171.831 8.70003C170.81 8.0162 169.6 7.66772 168.371 7.70307C167.13 7.66877 165.908 8.01178 164.866 8.68678C163.887 9.34478 163.149 10.3034 162.763 11.4178H162.527V7.97087H157.938V28.2815H162.726V15.9254C162.709 15.1617 162.881 14.4057 163.227 13.7247C163.536 13.1221 164.003 12.6145 164.577 12.2557C165.14 11.9046 165.791 11.7207 166.454 11.7254C166.907 11.7069 167.36 11.7805 167.783 11.9419C168.207 12.1032 168.594 12.3489 168.92 12.6641C169.24 12.9968 169.489 13.3913 169.651 13.8236C169.813 14.2558 169.886 14.7165 169.864 15.1777V28.2682H174.56V15.6072C174.518 14.5888 174.865 13.5926 175.53 12.8205C176.177 12.1028 177.079 11.7431 178.235 11.7413C179.135 11.7169 180.012 12.031 180.693 12.6216C181.363 13.2067 181.698 14.1303 181.698 15.3925V28.2841H186.497V14.6421C186.497 12.3777 185.907 10.6551 184.726 9.47428C183.545 8.29347 182.02 7.70307 180.152 7.70307Z" fill="white"/>
<path d="M206.068 12.4281C205.421 10.9877 204.375 9.76293 203.053 8.8989C201.783 8.10088 200.31 7.68571 198.811 7.70307C197.795 7.66655 196.785 7.87575 195.867 8.31291C195.166 8.6627 194.544 9.15378 194.041 9.75534C193.638 10.2476 193.287 10.7808 192.996 11.3462H192.731V7.96557H188.011V35.8887H192.8V25.0758H192.996C193.298 25.6357 193.66 26.1611 194.075 26.6428C194.587 27.233 195.214 27.7121 195.918 28.0508C196.825 28.4672 197.818 28.6661 198.816 28.6315C200.336 28.6569 201.829 28.2296 203.106 27.4038C204.421 26.5223 205.458 25.2843 206.094 23.8349C206.826 22.2758 207.192 20.3808 207.192 18.15C207.192 15.9192 206.817 14.0119 206.068 12.4281ZM201.756 21.5122C201.443 22.4274 200.882 23.2378 200.136 23.8534C199.374 24.4039 198.46 24.7023 197.52 24.7071C196.58 24.7118 195.662 24.4226 194.894 23.88C194.147 23.2772 193.584 22.4771 193.269 21.5705C192.874 20.4652 192.683 19.2971 192.707 18.1235C192.682 16.9579 192.868 15.7974 193.256 14.6978C193.569 13.8021 194.136 13.0165 194.886 12.436C195.665 11.9063 196.586 11.6253 197.527 11.63C198.469 11.6348 199.387 11.925 200.16 12.4625C200.905 13.0608 201.465 13.8579 201.775 14.7614C202.151 15.8417 202.332 16.98 202.311 18.1235C202.328 19.277 202.14 20.4243 201.756 21.5122Z" fill="white"/>
<path d="M4.97159 11.8262H0V16.4663H4.97159V11.8262Z" fill="#3338B5"/>
<path d="M14.9148 11.8262H9.94318V16.4663H14.9148V11.8262Z" fill="#999BDA"/>
<path d="M9.94318 11.8262H4.97159V16.4663H9.94318V11.8262Z" fill="#666AC7"/>
<path d="M19.8864 11.8262H14.9148V16.4663H19.8864V11.8262Z" fill="#CCCDEC"/>
<path d="M18.2292 0.888672H4.97159V5.52882H18.2292C20.5146 5.52882 22.7065 6.43673 24.3226 8.05281C25.9387 9.66889 26.8466 11.8608 26.8466 14.1462C26.8466 16.4317 25.9387 18.6236 24.3226 20.2397C22.7065 21.8558 20.5146 22.7637 18.2292 22.7637H4.97159V27.4038H18.2292C21.7453 27.4038 25.1174 26.007 27.6037 23.5208C30.09 21.0345 31.4867 17.6624 31.4867 14.1462C31.4867 10.6301 30.09 7.258 27.6037 4.77173C25.1174 2.28545 21.7453 0.888672 18.2292 0.888672Z" fill="white"/>
</svg>
