<svg width="358" height="101" viewBox="0 0 358 101" fill="none" xmlns="http://www.w3.org/2000/svg">
<path d="M76.7336 0.5H34.5904L31.0978 20.0215L69.1268 20.0673C87.856 20.0673 93.3942 26.8666 93.2363 38.1545C93.1548 43.9373 90.648 53.7121 89.5654 56.8811C86.679 65.3286 80.751 74.9684 58.5216 74.9301L21.5549 74.9149L18.0546 94.444H60.1036C74.9351 94.444 81.2478 92.7193 87.9222 89.6317C102.731 82.7943 111.543 68.1793 115.071 49.1062C120.329 20.7042 113.782 0.5 76.7336 0.5Z" fill="#008DE4"/>
<path d="M207.069 94.4898L210.039 77.5158H246.04C248.868 77.5158 250.85 75.8167 251.273 72.989C251.838 70.1587 250.424 68.4621 247.597 68.4621H230.383C216.803 68.4621 210.296 60.5419 212.701 46.9612C215.106 33.3805 224.442 25.4629 238.021 25.4629H277.132L274.022 42.4369H239.552C236.721 42.4369 234.742 44.1335 234.317 46.9612C233.751 49.7915 235.165 51.4881 237.995 51.4881H255.209C268.787 51.4881 275.293 59.4108 272.891 72.989C270.488 86.5671 261.289 94.4898 247.711 94.4898H207.069Z" fill="#008DE4"/>
<path d="M152.241 94.4873C129.89 94.4873 119.845 82.3204 123.806 59.9687C127.627 37.6195 142.056 25.4527 164.406 25.4527H204.017L191.85 94.4898L152.241 94.4873ZM177.986 42.4292H167.796C155.632 42.4292 148.435 47.8044 146.324 59.9687C144.061 72.1355 148.588 77.5108 160.753 77.5108H171.9L177.986 42.4292Z" fill="#008DE4"/>
<path d="M326.22 94.4873L333.294 54.3107C334.568 46.388 331.353 42.9948 323.43 42.9948H312.165L303.112 94.4873H280.184L296.761 0.5H319.688L315.276 25.4654H332.446C352.533 25.4654 359.748 34.2365 356.212 54.3235L349.137 94.5L326.22 94.4873Z" fill="#008DE4"/>
<path d="M16.4064 37.6654C5.36812 37.6654 3.78613 44.8595 2.74166 49.2055C1.37365 54.8992 0.925293 57.2047 0.925293 57.2047H44.0748C55.113 57.2047 56.695 50.0106 57.7395 45.6645C59.1075 39.9709 59.5559 37.6654 59.5559 37.6654H16.4064Z" fill="#008DE4"/>
</svg>
