<svg width="390" height="215" viewBox="0 0 390 215" fill="none" xmlns="http://www.w3.org/2000/svg">
<path d="M0.104288 22.0298L0.104295 169.101C0.104295 181.268 9.96747 191.131 22.1343 191.131L367.866 191.131C380.033 191.131 389.896 181.268 389.896 169.101L389.896 22.0298C389.896 9.86297 380.033 -0.000184454 367.866 -0.000183922L22.1343 -0.00016881C9.96746 -0.000168278 0.104288 9.86299 0.104288 22.0298Z" fill="#292A2E"/>
<path d="M6.98326 22.0982L6.98327 169.032C6.98327 177.387 13.7558 184.159 22.1102 184.159L367.376 184.159C375.73 184.159 382.503 177.387 382.503 169.032L382.503 22.0982C382.503 13.7438 375.73 6.97128 367.376 6.97128L22.1101 6.9713C13.7558 6.9713 6.98326 13.7438 6.98326 22.0982Z" fill="white"/>
<path d="M4.13915 131.854L4.13914 59.2756L11.649 59.2756C13.8025 59.2762 15.8676 60.1321 17.3901 61.6551C18.9127 63.1781 19.768 65.2434 19.768 67.3969L19.768 123.731C19.768 125.885 18.9124 127.951 17.3893 129.474C15.8663 130.997 13.8006 131.852 11.6467 131.852L4.13915 131.852L4.13915 131.854Z" fill="#292A2E"/>
<path d="M77.861 67.3722L77.861 123.758C77.861 130.989 83.7229 136.851 90.9539 136.851L147.34 136.851C154.571 136.851 160.433 130.989 160.433 123.758L160.433 67.3722C160.433 60.1412 154.571 54.2792 147.34 54.2792L90.9539 54.2793C83.7229 54.2793 77.861 60.1412 77.861 67.3722Z" fill="white"/>
<path d="M161.011 67.3728L161.011 123.758C161.007 127.383 159.566 130.858 157.003 133.421C154.439 135.984 150.964 137.426 147.339 137.43L90.9537 137.43C87.3289 137.426 83.8538 135.984 81.2907 133.421C78.7276 130.858 77.2859 127.383 77.2818 123.758L77.2818 67.3728C77.2859 63.748 78.7276 60.2729 81.2907 57.7098C83.8538 55.1467 87.3289 53.705 90.9537 53.7009L147.339 53.7009C150.964 53.7048 154.439 55.1465 157.003 57.7097C159.566 60.2728 161.007 63.748 161.011 67.3728ZM78.4397 123.758C78.4435 127.076 79.7632 130.257 82.1092 132.602C84.4552 134.948 87.6359 136.268 90.9537 136.272L147.339 136.272C150.657 136.268 153.838 134.948 156.184 132.602C158.53 130.257 159.85 127.076 159.853 123.758L159.853 67.3728C159.85 64.055 158.53 60.8741 156.184 58.5281C153.838 56.1821 150.657 54.8625 147.339 54.8588L90.9537 54.8588C87.6359 54.8625 84.455 56.1821 82.109 58.5281C79.763 60.8742 78.4434 64.055 78.4397 67.3728L78.4397 123.758Z" fill="#292A2E"/>
<path opacity="0.6" d="M227.972 71.1212L238.764 71.1212L238.764 150.863C238.764 152.295 238.195 153.667 237.183 154.679C236.171 155.691 234.799 156.259 233.368 156.259C231.937 156.259 230.564 155.691 229.552 154.679C228.54 153.667 227.972 152.295 227.972 150.863L227.972 71.1212Z" fill="#367CFF"/>
<path d="M239.344 40.2687L239.344 150.862C239.351 151.651 239.203 152.435 238.906 153.167C238.609 153.898 238.17 154.564 237.614 155.125C237.059 155.687 236.397 156.132 235.668 156.436C234.939 156.74 234.157 156.897 233.368 156.897C232.578 156.897 231.796 156.74 231.067 156.436C230.338 156.132 229.677 155.687 229.121 155.125C228.565 154.564 228.127 153.898 227.83 153.167C227.533 152.435 227.384 151.651 227.392 150.862L227.392 40.2687C227.407 38.6939 228.044 37.189 229.163 36.081C230.282 34.9729 231.793 34.3513 233.368 34.3513C234.942 34.3513 236.454 34.9729 237.573 36.081C238.692 37.189 239.328 38.6939 239.344 40.2687ZM228.55 150.862C228.543 151.499 228.662 152.131 228.901 152.722C229.14 153.312 229.494 153.85 229.942 154.303C230.39 154.756 230.924 155.115 231.512 155.361C232.1 155.606 232.731 155.733 233.368 155.733C234.005 155.733 234.636 155.606 235.224 155.361C235.812 155.115 236.345 154.756 236.793 154.303C237.241 153.85 237.595 153.312 237.834 152.722C238.073 152.131 238.193 151.499 238.186 150.862L238.186 40.2687C238.172 39 237.658 37.7881 236.756 36.8959C235.854 36.0037 234.636 35.5032 233.368 35.5032C232.099 35.5032 230.881 36.0037 229.979 36.8959C229.077 37.7881 228.564 39 228.55 40.2687L228.55 150.862Z" fill="#292A2E"/>
<path opacity="0.8" d="M275.567 56.9042L275.567 134.226C275.567 138.782 279.261 142.476 283.817 142.476L305.967 142.476C310.524 142.476 314.217 138.782 314.217 134.226L314.217 56.9042C314.217 52.348 310.524 48.6544 305.967 48.6544L283.817 48.6544C279.261 48.6544 275.567 52.348 275.567 56.9042Z" fill="#367CFF"/>
<path d="M305.969 48.6565L309.765 48.6565C311.953 48.6565 314.05 49.5255 315.597 51.0723C317.144 52.6191 318.013 54.7171 318.013 56.9046L318.013 134.226C318.013 136.414 317.144 138.512 315.597 140.058C314.05 141.605 311.953 142.474 309.765 142.474L305.969 142.474C308.157 142.474 310.255 141.605 311.802 140.058C313.348 138.512 314.217 136.414 314.217 134.226L314.217 56.9046C314.217 54.7171 313.348 52.6193 311.801 51.0725C310.255 49.5257 308.157 48.6567 305.969 48.6565Z" fill="#367CFF"/>
<path d="M306.31 100.719C306.31 101.043 306.195 101.356 305.984 101.601L298.4 110.451C298.284 110.587 298.142 110.698 297.984 110.778C297.825 110.859 297.652 110.907 297.474 110.921C297.297 110.935 297.118 110.913 296.949 110.858C296.78 110.803 296.623 110.715 296.488 110.599C296.353 110.483 296.242 110.342 296.161 110.183C296.081 110.024 296.032 109.851 296.019 109.674C296.005 109.496 296.026 109.318 296.082 109.148C296.137 108.979 296.225 108.822 296.341 108.687L303.071 100.834L283.078 82.5605C282.946 82.4404 282.84 82.2956 282.764 82.1343C282.689 81.9731 282.646 81.7986 282.638 81.6208C282.63 81.443 282.657 81.2653 282.718 81.098C282.778 80.9306 282.872 80.7769 282.992 80.6455C283.112 80.5141 283.257 80.4077 283.418 80.3322C283.579 80.2568 283.753 80.2139 283.931 80.2059C284.109 80.1979 284.287 80.225 284.454 80.2857C284.621 80.3464 284.775 80.4394 284.907 80.5595L305.87 99.7184C306.009 99.8453 306.12 99.9999 306.196 100.172C306.272 100.345 306.311 100.531 306.31 100.719Z" fill="white"/>
<path d="M139.883 95.5652C139.883 95.7188 139.822 95.8661 139.714 95.9747C139.605 96.0832 139.458 96.1442 139.304 96.1442L98.9897 96.1442C98.8361 96.1442 98.6888 96.0832 98.5803 95.9747C98.4717 95.8661 98.4107 95.7188 98.4107 95.5653C98.4107 95.4117 98.4717 95.2644 98.5803 95.1559C98.6888 95.0473 98.8361 94.9863 98.9897 94.9863L139.304 94.9863C139.458 94.9863 139.605 95.0473 139.714 95.1559C139.822 95.2644 139.883 95.4117 139.883 95.5652Z" fill="#292A2E"/>
<path d="M119.726 75.4077L119.726 115.722C119.726 115.876 119.665 116.023 119.556 116.132C119.448 116.24 119.3 116.301 119.147 116.301C118.993 116.301 118.846 116.24 118.737 116.132C118.629 116.023 118.568 115.876 118.568 115.722L118.568 75.4077C118.568 75.2541 118.629 75.1069 118.737 74.9983C118.846 74.8897 118.993 74.8287 119.147 74.8287C119.3 74.8287 119.448 74.8897 119.556 74.9983C119.665 75.1069 119.726 75.2541 119.726 75.4077Z" fill="#292A2E"/>
<g opacity="0.2">
<path d="M141.928 202.657C141.966 202.631 141.993 202.592 142.002 202.547C142.011 202.502 142.002 202.456 141.977 202.418L137.423 195.32C137.398 195.281 137.359 195.254 137.314 195.244C137.268 195.234 137.221 195.242 137.182 195.268C137.143 195.293 137.116 195.332 137.106 195.377C137.096 195.422 137.105 195.47 137.13 195.509L141.684 202.606C141.696 202.626 141.712 202.642 141.731 202.656C141.75 202.669 141.771 202.678 141.793 202.683C141.816 202.688 141.839 202.688 141.862 202.684C141.884 202.68 141.906 202.671 141.925 202.659L141.928 202.657Z" fill="#0C0C0C"/>
</g>
<g opacity="0.2">
<path d="M145.116 200.737C145.154 200.711 145.18 200.672 145.19 200.627C145.199 200.582 145.19 200.536 145.165 200.497L140.079 192.576C140.066 192.557 140.05 192.54 140.032 192.527C140.013 192.514 139.991 192.505 139.969 192.5C139.947 192.495 139.923 192.494 139.901 192.499C139.878 192.503 139.857 192.511 139.837 192.524C139.8 192.55 139.773 192.589 139.764 192.634C139.754 192.679 139.762 192.726 139.785 192.765L144.869 200.688C144.881 200.707 144.898 200.724 144.916 200.737C144.935 200.75 144.956 200.76 144.979 200.765C145.001 200.77 145.025 200.77 145.047 200.766C145.07 200.762 145.091 200.753 145.111 200.741L145.116 200.737Z" fill="#0C0C0C"/>
</g>
<g opacity="0.2">
<path d="M148.577 198.675C148.615 198.649 148.641 198.61 148.65 198.565C148.659 198.521 148.651 198.474 148.626 198.436L144.573 192.117C144.548 192.078 144.509 192.051 144.463 192.041C144.418 192.031 144.371 192.04 144.332 192.065C144.293 192.09 144.266 192.129 144.256 192.174C144.246 192.22 144.255 192.267 144.28 192.306L148.332 198.625C148.345 198.644 148.361 198.661 148.38 198.674C148.398 198.687 148.42 198.696 148.442 198.701C148.465 198.706 148.488 198.706 148.51 198.702C148.533 198.698 148.555 198.689 148.574 198.677L148.577 198.675Z" fill="#0C0C0C"/>
</g>
<path d="M62.6846 118.004L62.6846 211.035C62.6846 212.62 63.969 213.904 65.5534 213.904L141.811 213.904C143.396 213.904 144.68 212.62 144.68 211.035L144.68 118.004C144.68 116.42 143.396 115.136 141.811 115.136L65.5534 115.136C63.969 115.136 62.6846 116.42 62.6846 118.004Z" fill="#367CFF"/>
<path opacity="0.3" d="M62.6846 118.004L62.6846 211.035C62.6846 212.62 63.969 213.904 65.5534 213.904L141.811 213.904C143.396 213.904 144.68 212.62 144.68 211.035L144.68 118.004C144.68 116.42 143.396 115.136 141.811 115.136L65.5534 115.136C63.969 115.136 62.6846 116.42 62.6846 118.004Z" fill="white"/>
<path opacity="0.8" d="M95.2315 179.457C95.2315 175.51 92.0317 172.31 88.0846 172.31C84.1375 172.31 80.9378 175.51 80.9378 179.457C80.9378 183.404 84.1375 186.604 88.0846 186.604C92.0317 186.604 95.2315 183.404 95.2315 179.457Z" fill="white"/>
<path opacity="0.5" d="M121.499 169.616L98.3866 148.898C96.9433 147.605 96.0682 145.794 95.9512 143.86C95.8343 141.925 96.4849 140.022 97.7618 138.564L118.276 115.134L144.681 115.134L144.681 143.457" fill="white"/>
<path opacity="0.8" d="M144.68 143.457L104.868 188.382C103.692 189.709 103.034 191.417 103.016 193.191C102.999 194.964 103.622 196.685 104.771 198.036L118.276 213.904L144.68 213.904" fill="white"/>
<path d="M145.116 118.005L145.116 211.035C145.114 211.91 144.766 212.748 144.147 213.367C143.529 213.986 142.691 214.334 141.816 214.335L65.5532 214.335C64.678 214.334 63.8389 213.986 63.2198 213.368C62.6006 212.749 62.252 211.91 62.2501 211.035L62.2501 118.005C62.2512 117.129 62.5995 116.29 63.2187 115.67C63.8379 115.051 64.6774 114.703 65.5532 114.701L141.811 114.701C142.687 114.702 143.527 115.05 144.147 115.67C144.766 116.289 145.115 117.129 145.116 118.005ZM63.1186 211.035C63.1201 211.68 63.3772 212.298 63.8335 212.754C64.2898 213.21 64.9082 213.466 65.5532 213.467L141.811 213.467C142.456 213.466 143.073 213.209 143.529 212.753C143.985 212.297 144.241 211.68 144.243 211.035L144.243 118.005C144.242 117.36 143.986 116.741 143.53 116.285C143.074 115.829 142.456 115.571 141.811 115.57L65.5532 115.57C64.9077 115.571 64.2889 115.828 63.8325 116.284C63.3761 116.741 63.1193 117.359 63.1186 118.005L63.1186 211.035Z" fill="#292A2E"/>
<g opacity="0.2">
<path d="M141.928 145.884C141.966 145.858 141.993 145.819 142.002 145.774C142.011 145.729 142.002 145.683 141.977 145.644L137.423 138.547C137.411 138.527 137.395 138.511 137.376 138.498C137.357 138.485 137.336 138.475 137.314 138.471C137.291 138.466 137.268 138.465 137.245 138.469C137.223 138.473 137.201 138.482 137.182 138.494C137.163 138.507 137.146 138.523 137.133 138.542C137.12 138.56 137.111 138.582 137.106 138.604C137.101 138.626 137.101 138.65 137.105 138.672C137.109 138.695 137.117 138.716 137.13 138.735L141.684 145.833C141.696 145.852 141.712 145.869 141.731 145.882C141.75 145.895 141.771 145.905 141.793 145.91C141.816 145.915 141.839 145.915 141.862 145.911C141.884 145.907 141.906 145.898 141.925 145.886L141.928 145.884Z" fill="#0C0C0C"/>
</g>
<g opacity="0.2">
<path d="M145.116 143.962C145.154 143.936 145.18 143.897 145.19 143.852C145.199 143.807 145.19 143.761 145.165 143.722L140.079 135.801C140.066 135.782 140.05 135.765 140.032 135.752C140.013 135.739 139.991 135.73 139.969 135.725C139.947 135.72 139.923 135.719 139.901 135.724C139.878 135.728 139.857 135.736 139.837 135.749C139.8 135.775 139.773 135.814 139.764 135.859C139.754 135.904 139.762 135.951 139.785 135.99L144.867 143.911C144.88 143.931 144.896 143.947 144.915 143.961C144.933 143.974 144.955 143.983 144.977 143.988C145 143.993 145.023 143.993 145.045 143.989C145.068 143.985 145.09 143.976 145.109 143.964L145.116 143.962Z" fill="#0C0C0C"/>
</g>
<g opacity="0.2">
<path d="M148.577 141.899C148.615 141.874 148.641 141.834 148.65 141.79C148.659 141.745 148.651 141.699 148.626 141.661L144.573 135.342C144.548 135.303 144.509 135.275 144.463 135.265C144.418 135.256 144.371 135.264 144.332 135.289C144.293 135.314 144.266 135.354 144.256 135.399C144.246 135.444 144.255 135.491 144.28 135.53L148.332 141.849C148.345 141.868 148.361 141.885 148.38 141.898C148.398 141.911 148.42 141.921 148.442 141.925C148.465 141.93 148.488 141.931 148.51 141.927C148.533 141.922 148.555 141.914 148.574 141.901L148.577 141.899Z" fill="#0C0C0C"/>
</g>
</svg>
