<svg width="257" height="201" viewBox="0 0 257 201" fill="none" xmlns="http://www.w3.org/2000/svg">
<path d="M19.1679 166.067L211.228 197.498C221.361 199.156 230.92 192.286 232.578 182.153L253.177 56.2826C254.835 46.1498 247.965 36.5912 237.832 34.933L45.7714 3.50249C35.6385 1.84426 26.08 8.71431 24.4217 18.8472L3.82322 144.717C2.16499 154.85 9.03504 164.409 19.1679 166.067Z" fill="#262626"/>
<path d="M75.7369 31.6384L51.7559 27.7139C47.6104 27.0355 43.6999 29.8462 43.0215 33.9916L40.7359 47.958C40.0575 52.1034 42.8682 56.014 47.0136 56.6924L70.9946 60.6168C75.1401 61.2952 79.0506 58.4846 79.729 54.3391L82.0146 40.3728C82.693 36.2273 79.8824 32.3168 75.7369 31.6384Z" fill="white"/>
<path d="M82.7156 36.0915L81.6024 42.892L68.3922 40.7299L66.6101 38.2495L67.8998 30.3654L80.0277 32.3508C80.4499 32.4198 80.8543 32.5714 81.2179 32.7967C81.5815 33.0221 81.897 33.3169 82.1466 33.6643C82.3962 34.0117 82.5749 34.4048 82.6726 34.8213C82.7702 35.2378 82.7848 35.6694 82.7156 36.0915Z" fill="#0CBC8B"/>
<path d="M80.1347 51.8411L79.0216 58.6415C78.9526 59.0642 78.8008 59.4691 78.5751 59.8331C78.3494 60.197 78.054 60.5129 77.7061 60.7626C77.3581 61.0122 76.9643 61.1908 76.5473 61.2881C76.1302 61.3853 75.698 61.3993 75.2754 61.3293L63.1475 59.3453L64.4734 51.2471L66.9178 49.6791L80.1347 51.8411Z" fill="#0CBC8B"/>
<path d="M59.3734 28.9715L58.0824 36.8556L55.816 38.6725L42.6057 36.5104L43.7188 29.71C43.7877 29.2878 43.9391 28.8834 44.1643 28.5198C44.3896 28.1562 44.6842 27.8405 45.0315 27.5908C45.3787 27.3411 45.7718 27.1622 46.1882 27.0644C46.6045 26.9666 47.0361 26.9518 47.4582 27.0208L59.3734 28.9715Z" fill="#0CBC8B"/>
<path d="M55.9579 49.8528L54.6335 57.9497L42.7182 56.0004C42.2957 55.931 41.891 55.7791 41.5272 55.5533C41.1634 55.3275 40.8477 55.0322 40.5981 54.6843C40.3485 54.3364 40.1699 53.9427 40.0724 53.5258C39.975 53.1088 39.9608 52.6768 40.0304 52.2543L41.1436 45.4539L54.3525 47.6212L55.9579 49.8528Z" fill="#0CBC8B"/>
<path d="M217.083 165.304C216.343 169.825 213.837 173.867 210.117 176.541C206.397 179.214 201.767 180.301 197.246 179.561C192.725 178.821 188.683 176.315 186.01 172.595C183.336 168.875 182.25 164.245 182.99 159.724C183.409 157.183 184.395 154.77 185.876 152.664C187.357 150.558 189.295 148.813 191.544 147.56C194.368 145.928 197.598 145.134 200.856 145.27C204.114 145.406 207.267 146.466 209.945 148.327C212.623 150.188 214.716 152.772 215.98 155.779C217.244 158.785 217.627 162.089 217.083 165.304Z" fill="white"/>
<path d="M180.828 172.935C177.995 174.564 174.759 175.356 171.494 175.219C168.23 175.083 165.071 174.023 162.384 172.163C159.698 170.303 157.594 167.719 156.317 164.712C155.04 161.704 154.642 158.396 155.17 155.171C155.698 151.947 157.129 148.938 159.298 146.494C161.468 144.051 164.285 142.272 167.424 141.366C170.564 140.459 173.896 140.462 177.033 141.373C180.171 142.284 182.986 144.066 185.152 146.513C180.794 149.082 178.313 153.489 177.44 158.815C176.568 164.141 177.482 169.324 180.828 172.935Z" fill="#0CBC8B"/>
<path d="M72.8081 84.9253L38.8151 79.3624C37.0833 79.079 35.4496 80.2532 35.1662 81.985C34.8827 83.7168 36.0569 85.3505 37.7888 85.6339L71.7818 91.1969C73.5136 91.4803 75.1473 90.3061 75.4307 88.5743C75.7141 86.8424 74.54 85.2087 72.8081 84.9253Z" fill="white"/>
<path d="M122.871 93.1185L88.8783 87.5556C87.1465 87.2722 85.5128 88.4464 85.2294 90.1782C84.946 91.9101 86.1202 93.5438 87.852 93.8272L121.845 99.3901C123.577 99.6735 125.21 98.4993 125.494 96.7675C125.777 95.0356 124.603 93.402 122.871 93.1185Z" fill="white"/>
<path d="M172.935 101.312L138.942 95.7488C137.21 95.4653 135.576 96.6395 135.293 98.3714C135.009 100.103 136.184 101.737 137.915 102.02L171.908 107.583C173.64 107.867 175.274 106.692 175.557 104.961C175.841 103.229 174.667 101.595 172.935 101.312Z" fill="white"/>
<path d="M222.998 109.503L189.005 103.94C187.273 103.657 185.639 104.831 185.356 106.563C185.072 108.294 186.246 109.928 187.978 110.212L221.971 115.775C223.703 116.058 225.337 114.884 225.62 113.152C225.904 111.42 224.73 109.786 222.998 109.503Z" fill="white"/>
</svg>
